<svg width="2351" height="780" viewBox="0 0 2351 780" fill="none" xmlns="http://www.w3.org/2000/svg">
<path d="M16.4374 1.55957H13.4214V132.319H16.4374V1.55957Z" fill="#79D2C9" fill-opacity="0.7"/>
<path d="M23.1627 140.057C23.1627 144.768 19.453 148.574 14.929 148.574C10.3748 148.574 6.69531 144.737 6.69531 140.057C6.69531 135.377 10.405 131.539 14.929 131.539C19.453 131.539 23.1627 135.345 23.1627 140.057ZM9.65099 140.057C9.65099 143.083 12.0035 145.485 14.8988 145.485C17.764 145.485 20.1467 143.052 20.1467 140.057C20.1467 137.061 17.764 134.628 14.8988 134.628C12.0035 134.628 9.65099 137.061 9.65099 140.057Z" fill="#79D2C9" fill-opacity="0.7"/>
<path d="M16.407 344.541C16.407 349.252 12.6974 353.059 8.17336 353.059C3.64936 353.059 0 349.221 0 344.541C0 339.83 3.67952 335.992 8.17336 335.992C12.7275 335.992 16.407 339.83 16.407 344.541ZM2.95568 344.541C2.95568 347.536 5.278 349.97 8.1432 349.97C11.0084 349.97 13.391 347.536 13.391 344.541C13.391 341.546 11.0084 339.112 8.1432 339.112C5.278 339.112 2.95568 341.546 2.95568 344.541Z" fill="#79D2C9" fill-opacity="0.7"/>
<path d="M49.9751 207.418C49.9751 212.129 46.2654 215.936 41.7414 215.936C37.2174 215.936 33.4775 212.129 33.4775 207.418C33.4775 202.707 37.1872 198.932 41.7112 198.932C46.2352 198.932 49.9751 202.738 49.9751 207.418ZM36.4634 207.418C36.4634 210.413 38.8159 212.847 41.7112 212.847C44.6367 212.847 46.9591 210.444 46.9591 207.418C46.9591 204.454 44.5764 202.02 41.7112 202.02C38.8159 202.02 36.4634 204.454 36.4634 207.418Z" fill="#79D2C9" fill-opacity="0.7"/>
<path d="M16.407 273.468C16.407 278.179 12.6974 281.985 8.17336 281.985C3.64936 281.985 0 278.148 0 273.468C0 268.788 3.67952 264.95 8.17336 264.95C12.7275 264.95 16.407 268.757 16.407 273.468ZM2.95568 273.468C2.95568 276.494 5.278 278.897 8.1432 278.897C11.0084 278.897 13.391 276.463 13.391 273.468C13.391 270.473 11.0084 268.039 8.1432 268.039C5.278 268.039 2.95568 270.441 2.95568 273.468Z" fill="#79D2C9" fill-opacity="0.7"/>
<path d="M16.407 301.143C16.407 305.854 12.6974 309.66 8.17336 309.66C3.64936 309.66 0 305.823 0 301.143C0 296.432 3.67952 292.625 8.17336 292.625C12.7275 292.594 16.407 296.432 16.407 301.143ZM2.95568 301.143C2.95568 304.138 5.278 306.572 8.1432 306.572C11.0084 306.572 13.391 304.138 13.391 301.143C13.391 298.148 11.0084 295.714 8.1432 295.714C5.278 295.714 2.95568 298.148 2.95568 301.143Z" fill="#79D2C9" fill-opacity="0.7"/>
<path d="M83.5133 301.143C83.5133 305.854 79.8036 309.66 75.2796 309.66C70.7254 309.66 67.0459 305.823 67.0459 301.143C67.0459 296.432 70.7556 292.625 75.2796 292.625C79.8337 292.594 83.5133 296.432 83.5133 301.143ZM70.0317 301.143C70.0317 304.138 72.3842 306.572 75.2796 306.572C78.1448 306.572 80.5274 304.138 80.5274 301.143C80.5274 298.148 78.1448 295.714 75.2796 295.714C72.3842 295.714 70.0317 298.148 70.0317 301.143Z" fill="#79D2C9" fill-opacity="0.7"/>
<path d="M190.762 117.28C190.762 121.991 187.083 125.767 182.589 125.767C178.035 125.767 174.355 121.96 174.355 117.28C174.355 112.6 178.065 108.763 182.589 108.763C187.113 108.763 190.762 112.6 190.762 117.28ZM177.341 117.28C177.341 120.338 179.633 122.678 182.589 122.678C185.424 122.678 187.776 120.244 187.776 117.28C187.776 114.285 185.424 111.851 182.589 111.851C179.693 111.851 177.341 114.285 177.341 117.28Z" fill="#79D2C9" fill-opacity="0.7"/>
<path d="M184.097 73.1641C184.097 77.8753 180.387 81.6817 175.863 81.6817C171.339 81.6817 167.629 77.8441 167.629 73.1641C167.629 68.4529 171.339 64.6777 175.863 64.6777C180.387 64.6777 184.097 68.4529 184.097 73.1641ZM170.585 73.1641C170.585 76.1905 172.877 78.5929 175.833 78.5929C178.728 78.5929 181.081 76.1593 181.081 73.1641C181.081 70.2001 178.698 67.7665 175.833 67.7665C172.938 67.7665 170.585 70.2001 170.585 73.1641Z" fill="#79D2C9" fill-opacity="0.7"/>
<path d="M184.097 154.003C184.097 158.683 180.387 162.49 175.863 162.49C171.339 162.49 167.629 158.683 167.629 154.003C167.629 149.292 171.339 145.517 175.863 145.517C180.387 145.486 184.097 149.292 184.097 154.003ZM170.585 154.003C170.585 157.03 172.877 159.401 175.833 159.401C178.728 159.401 181.081 156.967 181.081 154.003C181.081 151.039 178.698 148.606 175.833 148.606C172.877 148.574 170.585 150.946 170.585 154.003Z" fill="#79D2C9" fill-opacity="0.7"/>
<path d="M157.224 152.817C157.224 157.529 153.544 161.304 149.051 161.304C144.496 161.304 140.817 157.497 140.817 152.817C140.817 148.106 144.527 144.331 149.051 144.331C153.544 144.331 157.224 148.137 157.224 152.817ZM143.773 152.817C143.773 155.844 146.065 158.215 149.02 158.215C151.855 158.215 154.208 155.781 154.208 152.817C154.208 149.853 151.855 147.42 149.02 147.42C146.065 147.42 143.773 149.791 143.773 152.817Z" fill="#79D2C9" fill-opacity="0.7"/>
<path d="M157.224 280.457C157.224 285.137 153.544 288.944 149.051 288.944C144.496 288.944 140.817 285.137 140.817 280.457C140.817 275.746 144.527 271.94 149.051 271.94C153.544 271.908 157.224 275.746 157.224 280.457ZM143.773 280.457C143.773 283.421 146.125 285.855 149.02 285.855C151.855 285.855 154.208 283.421 154.208 280.457C154.208 277.431 151.855 275.028 149.02 275.028C146.065 274.997 143.773 277.4 143.773 280.457Z" fill="#79D2C9" fill-opacity="0.7"/>
<path d="M190.762 246.293C190.762 250.973 187.083 254.811 182.589 254.811C178.035 254.811 174.355 250.973 174.355 246.293C174.355 241.582 178.065 237.776 182.589 237.776C187.113 237.744 190.762 241.582 190.762 246.293ZM177.341 246.293C177.341 249.288 179.693 251.722 182.589 251.722C185.424 251.722 187.776 249.288 187.776 246.293C187.776 243.267 185.424 240.864 182.589 240.864C179.693 240.833 177.341 243.267 177.341 246.293Z" fill="#79D2C9" fill-opacity="0.7"/>
<path d="M123.716 246.293C123.716 250.973 120.007 254.811 115.483 254.811C110.929 254.811 107.249 250.973 107.249 246.293C107.249 241.582 110.959 237.776 115.483 237.776C120.037 237.744 123.716 241.582 123.716 246.293ZM110.235 246.293C110.235 249.288 112.587 251.722 115.483 251.722C118.348 251.722 120.731 249.288 120.731 246.293C120.731 243.267 118.348 240.864 115.483 240.864C112.587 240.833 110.235 243.267 110.235 246.293Z" fill="#79D2C9" fill-opacity="0.7"/>
<path d="M130.412 472.555C130.412 477.266 126.702 481.072 122.178 481.072C117.654 481.072 114.005 477.266 114.005 472.555C114.005 467.875 117.684 464.037 122.178 464.037C126.702 464.006 130.412 467.844 130.412 472.555ZM116.961 472.555C116.961 475.581 119.283 477.984 122.148 477.984C125.013 477.984 127.396 475.581 127.396 472.555C127.396 469.56 125.013 467.126 122.148 467.126C119.283 467.126 116.961 469.56 116.961 472.555Z" fill="#79D2C9" fill-opacity="0.7"/>
<path d="M130.412 223.143C130.412 227.823 126.732 231.629 122.239 231.629C117.684 231.629 114.005 227.823 114.005 223.143C114.005 218.431 117.715 214.625 122.239 214.625C126.732 214.625 130.412 218.431 130.412 223.143ZM116.961 223.143C116.961 226.107 119.313 228.54 122.208 228.54C125.043 228.54 127.396 226.107 127.396 223.143C127.396 220.116 125.043 217.714 122.208 217.714C119.253 217.714 116.961 220.116 116.961 223.143Z" fill="#79D2C9" fill-opacity="0.7"/>
<path d="M103.599 412.527C103.599 417.207 99.8897 421.044 95.3657 421.044C90.8417 421.044 87.1924 417.207 87.1924 412.527C87.1924 407.847 90.8719 404.009 95.3657 404.009C99.8897 403.978 103.599 407.815 103.599 412.527ZM90.1481 412.527C90.1481 415.553 92.4704 417.955 95.3356 417.955C98.2008 417.955 100.583 415.553 100.583 412.527C100.583 409.5 98.2008 407.098 95.3356 407.098C92.4704 407.098 90.1481 409.5 90.1481 412.527Z" fill="#79D2C9" fill-opacity="0.7"/>
<path d="M103.599 458.454C103.599 463.134 99.8897 467.003 95.3657 467.003C90.8417 467.003 87.1924 463.165 87.1924 458.454C87.1924 453.743 90.8719 449.937 95.3657 449.937C99.8897 449.937 103.599 453.774 103.599 458.454ZM90.1481 458.454C90.1481 461.481 92.4704 463.883 95.3356 463.883C98.2008 463.883 100.583 461.481 100.583 458.454C100.583 455.428 98.2008 453.025 95.3356 453.025C92.4704 453.057 90.1481 455.459 90.1481 458.454Z" fill="#79D2C9" fill-opacity="0.7"/>
<path d="M157.224 650.457C157.224 655.137 153.544 658.975 149.051 658.975C144.496 658.975 140.817 655.137 140.817 650.457C140.817 645.777 144.527 641.908 149.051 641.908C153.544 641.908 157.224 645.746 157.224 650.457ZM143.773 650.457C143.773 653.483 146.155 655.886 149.02 655.886C151.886 655.886 154.208 653.483 154.208 650.457C154.208 647.431 151.886 645.028 149.02 645.028C146.155 645.028 143.773 647.431 143.773 650.457Z" fill="#79D2C9" fill-opacity="0.7"/>
<path d="M184.097 419.482C184.097 424.194 180.387 428 175.863 428C171.339 428 167.629 424.194 167.629 419.482C167.629 414.802 171.339 410.965 175.863 410.965C180.387 410.965 184.097 414.802 184.097 419.482ZM170.585 419.482C170.585 422.509 172.938 424.911 175.833 424.911C178.728 424.911 181.081 422.509 181.081 419.482C181.081 416.487 178.698 414.054 175.833 414.054C172.938 414.054 170.585 416.518 170.585 419.482Z" fill="#79D2C9" fill-opacity="0.7"/>
<path d="M130.412 592.771C130.412 597.482 126.732 601.288 122.239 601.288C117.684 601.288 114.005 597.482 114.005 592.771C114.005 588.091 117.715 584.284 122.239 584.284C126.732 584.284 130.412 588.091 130.412 592.771ZM116.961 592.771C116.961 595.797 119.343 598.231 122.208 598.231C125.074 598.231 127.396 595.797 127.396 592.771C127.396 589.775 125.074 587.342 122.208 587.342C119.343 587.342 116.961 589.775 116.961 592.771Z" fill="#79D2C9" fill-opacity="0.7"/>
<path d="M130.412 700.628C130.412 705.339 126.732 709.146 122.239 709.146C117.684 709.146 114.005 705.339 114.005 700.628C114.005 695.948 117.715 692.079 122.239 692.079C126.732 692.11 130.412 695.948 130.412 700.628ZM116.961 700.628C116.961 703.654 119.343 706.088 122.208 706.088C125.074 706.088 127.396 703.654 127.396 700.628C127.396 697.633 125.074 695.199 122.208 695.199C119.343 695.199 116.961 697.633 116.961 700.628Z" fill="#79D2C9" fill-opacity="0.7"/>
<path d="M49.9751 390C49.9751 394.711 46.2654 398.518 41.7414 398.518C37.2174 398.518 33.4775 394.711 33.4775 390C33.4775 385.289 37.1872 381.482 41.7112 381.482C46.2352 381.482 49.9751 385.289 49.9751 390ZM36.4634 390C36.4634 392.995 38.8159 395.429 41.7112 395.429C44.5764 395.429 46.9591 392.995 46.9591 390C46.9591 387.005 44.5764 384.571 41.7112 384.571C38.8159 384.571 36.4634 387.005 36.4634 390Z" fill="#79D2C9" fill-opacity="0.7"/>
<path d="M83.5133 496.83C83.5133 501.51 79.8036 505.348 75.2796 505.348C70.7254 505.348 67.0459 501.51 67.0459 496.83C67.0459 492.15 70.7556 488.313 75.2796 488.313C79.8337 488.281 83.5133 492.119 83.5133 496.83ZM70.0317 496.83C70.0317 499.857 72.3842 502.259 75.2796 502.259C78.1448 502.259 80.5274 499.857 80.5274 496.83C80.5274 493.804 78.1448 491.401 75.2796 491.401C72.3842 491.401 70.0317 493.804 70.0317 496.83Z" fill="#79D2C9" fill-opacity="0.7"/>
<path d="M49.9754 520.916C49.9754 525.596 46.2657 529.434 41.7417 529.434C37.2177 529.434 33.5684 525.596 33.5684 520.916C33.5684 516.205 37.2479 512.398 41.7417 512.398C46.2657 512.398 49.9754 516.205 49.9754 520.916ZM36.524 520.916C36.524 523.911 38.8464 526.345 41.7116 526.345C44.5768 526.345 46.9594 523.911 46.9594 520.916C46.9594 517.89 44.5768 515.487 41.7116 515.487C38.8464 515.487 36.524 517.921 36.524 520.916Z" fill="#79D2C9" fill-opacity="0.7"/>
<path d="M76.7874 628.243C76.7874 632.923 73.0777 636.792 68.5537 636.792C64.0599 636.792 60.3804 632.955 60.3804 628.243C60.3804 623.532 64.0599 619.726 68.5537 619.726C73.0777 619.695 76.7874 623.501 76.7874 628.243ZM63.3361 628.243C63.3361 631.239 65.6584 633.672 68.5236 633.672C71.4189 633.672 73.7714 631.239 73.7714 628.243C73.7714 625.217 71.3888 622.815 68.5236 622.815C65.6584 622.815 63.3361 625.217 63.3361 628.243Z" fill="#79D2C9" fill-opacity="0.7"/>
<path d="M49.9754 672.422C49.9754 677.102 46.2657 680.939 41.7417 680.939C37.2177 680.939 33.5684 677.102 33.5684 672.422C33.5684 667.742 37.2479 663.873 41.7417 663.873C46.2657 663.873 49.9754 667.711 49.9754 672.422ZM36.524 672.422C36.524 675.448 38.8464 677.851 41.7116 677.851C44.5768 677.851 46.9594 675.448 46.9594 672.422C46.9594 669.395 44.5768 666.993 41.7116 666.993C38.8464 666.993 36.524 669.395 36.524 672.422Z" fill="#79D2C9" fill-opacity="0.7"/>
<path d="M103.599 771.482C103.599 776.162 99.8897 780 95.3657 780C90.8417 780 87.1924 776.162 87.1924 771.482C87.1924 766.802 90.8719 762.934 95.3657 762.934C99.8897 762.934 103.599 766.771 103.599 771.482ZM90.1481 771.482C90.1481 774.509 92.4704 776.911 95.3356 776.911C98.2611 776.911 100.583 774.54 100.583 771.482C100.583 768.487 98.2008 766.054 95.3356 766.054C92.4704 766.054 90.1481 768.487 90.1481 771.482Z" fill="#79D2C9" fill-opacity="0.7"/>
<path d="M23.1627 510.743C23.1627 515.454 19.453 519.292 14.929 519.292C10.3748 519.292 6.69531 515.486 6.69531 510.743C6.69531 506.063 10.405 502.226 14.929 502.226C19.453 502.226 23.1627 506.063 23.1627 510.743ZM9.65099 510.743C9.65099 513.77 12.0035 516.172 14.8988 516.172C17.764 516.172 20.1467 513.77 20.1467 510.743C20.1467 507.748 17.764 505.314 14.8988 505.314C12.0035 505.314 9.65099 507.748 9.65099 510.743Z" fill="#79D2C9" fill-opacity="0.7"/>
<path d="M23.1627 740.752C23.1627 745.463 19.453 749.27 14.929 749.27C10.3748 749.27 6.69531 745.463 6.69531 740.752C6.69531 736.072 10.405 732.234 14.929 732.234C19.453 732.234 23.1627 736.072 23.1627 740.752ZM9.65099 740.752C9.65099 743.778 12.0336 746.181 14.8988 746.181C17.764 746.181 20.1467 743.778 20.1467 740.752C20.1467 737.757 17.764 735.323 14.8988 735.323C12.0336 735.323 9.65099 737.757 9.65099 740.752Z" fill="#79D2C9" fill-opacity="0.7"/>
<path d="M49.9754 481.792C49.9754 486.472 46.2657 490.31 41.7417 490.31C37.2177 490.31 33.5684 486.472 33.5684 481.792C33.5684 477.112 37.2479 473.243 41.7417 473.243C46.2657 473.274 49.9754 477.112 49.9754 481.792ZM36.524 481.792C36.524 484.818 38.8464 487.221 41.7116 487.221C44.5768 487.221 46.9594 484.818 46.9594 481.792C46.9594 478.766 44.5768 476.363 41.7116 476.363C38.8464 476.394 36.524 478.797 36.524 481.792Z" fill="#79D2C9" fill-opacity="0.7"/>
<path d="M76.7874 386.911C76.7874 391.623 73.0777 395.429 68.5537 395.429C64.0599 395.429 60.3804 391.591 60.3804 386.911C60.3804 382.231 64.0599 378.394 68.5537 378.394C73.0777 378.363 76.7874 382.2 76.7874 386.911ZM63.3361 386.911C63.3361 389.907 65.6584 392.34 68.5236 392.34C71.4189 392.34 73.7714 389.907 73.7714 386.911C73.7714 383.916 71.3888 381.483 68.5236 381.483C65.6584 381.483 63.3361 383.916 63.3361 386.911Z" fill="#79D2C9" fill-opacity="0.7"/>
<path d="M76.7874 104.676C76.7874 109.356 73.0777 113.162 68.5537 113.162C64.0599 113.162 60.3804 109.356 60.3804 104.676C60.3804 99.9646 64.0599 96.1582 68.5537 96.1582C73.0777 96.1582 76.7874 99.9646 76.7874 104.676ZM63.3361 104.676C63.3361 107.64 65.6584 110.073 68.5236 110.073C71.4189 110.073 73.7714 107.64 73.7714 104.676C73.7714 101.618 71.4491 99.247 68.5236 99.247C65.6584 99.247 63.3361 101.649 63.3361 104.676Z" fill="#79D2C9" fill-opacity="0.7"/>
<path d="M43.2192 1.55957H40.2334V201.614H43.2192V1.55957Z" fill="#79D2C9" fill-opacity="0.7"/>
<path d="M70.0317 1.55957H67.0459V97.6868H70.0317V1.55957Z" fill="#79D2C9" fill-opacity="0.7"/>
<path d="M96.8436 1.55957V163.612H70.0314V274.996H14.8989V271.908H67.0456V160.524H93.8578V1.55957H96.8436Z" fill="#79D2C9" fill-opacity="0.7"/>
<path d="M123.716 1.55957V209.944H96.8436V323.575H70.0314V374.056H40.2333V346.07H14.8989V342.981H43.2192V370.968H67.0456V320.455H93.8578V206.856H120.73V1.55957H123.716Z" fill="#79D2C9" fill-opacity="0.7"/>
<path d="M175.833 115.752V118.84H147.542V1.55957H150.528V115.752H175.833Z" fill="#79D2C9" fill-opacity="0.7"/>
<path d="M150.529 158.87H147.543V273.468H150.529V158.87Z" fill="#79D2C9" fill-opacity="0.7"/>
<path d="M123.716 229.445V353.06H96.8437V405.538H93.8579V349.971H120.73V229.445H123.716Z" fill="#79D2C9" fill-opacity="0.7"/>
<path d="M68.5232 495.268V498.388H13.4209V445.754H40.2331V396.801H43.219V448.842H16.4067V495.268H68.5232Z" fill="#79D2C9" fill-opacity="0.7"/>
<path d="M70.0315 393.898V462.164H43.2192V474.831H40.2334V459.044H67.0456V393.898H70.0315Z" fill="#79D2C9" fill-opacity="0.7"/>
<path d="M150.529 518.263V643.469H147.543V521.383H123.716V556.639H93.8579V465.441H96.8437V553.55H120.73V518.263H150.529Z" fill="#79D2C9" fill-opacity="0.7"/>
<path d="M123.716 599.789V635.638H96.8437V659.755H123.656V693.639H120.67V662.813H93.8579V632.518H120.73V599.789H123.716Z" fill="#79D2C9" fill-opacity="0.7"/>
<path d="M43.219 591.241V651.988H16.4067V733.794H13.4209V648.899H40.2331V594.33H13.4209V518.171H16.4067V591.241H43.219Z" fill="#79D2C9" fill-opacity="0.7"/>
<path d="M70.0315 573.611V621.784H67.0456V576.7H40.2334V527.903H43.2192V573.611H70.0315Z" fill="#79D2C9" fill-opacity="0.7"/>
<path d="M96.8437 700.159V762.653H93.8579V703.279H70.0315V725.618H40.2334V679.38H43.2192V722.53H67.0456V700.159H96.8437Z" fill="#79D2C9" fill-opacity="0.7"/>
<path d="M177.341 1.55957H174.355V66.2372H177.341V1.55957Z" fill="#79D2C9" fill-opacity="0.7"/>
<path d="M204.153 227.261V287.976H177.341V344.947H150.528V409.032H123.656V465.441H120.67V405.943H147.542V341.858H174.355V284.856H201.167V230.349H174.355V160.805H177.341V227.261H204.153Z" fill="#79D2C9" fill-opacity="0.7"/>
<path d="M68.5234 299.613H14.8989V302.702H68.5234V299.613Z" fill="#79D2C9" fill-opacity="0.7"/>
<path d="M175.863 244.732H122.178V247.821H175.863V244.732Z" fill="#79D2C9" fill-opacity="0.7"/>
<path d="M204.153 494.863V584.501H177.341V671.175H150.529V779.657H147.543V668.086H174.355V581.381H201.167V497.983H174.355V426.723H177.341V494.863H204.153Z" fill="#79D2C9" fill-opacity="0.7"/>
<path d="M177.341 516.579H174.355V560.322H177.341V516.579Z" fill="#79D2C9" fill-opacity="0.7"/>
<path d="M652.3 662.688C652.3 667.399 648.591 671.236 644.067 671.236C639.543 671.236 635.833 667.43 635.833 662.688C635.833 658.008 639.543 654.201 644.067 654.201C648.591 654.201 652.3 658.008 652.3 662.688ZM638.819 662.688C638.819 665.714 641.141 668.148 644.067 668.148C646.992 668.148 649.315 665.745 649.315 662.688C649.315 659.724 646.962 657.29 644.067 657.29C641.141 657.29 638.819 659.755 638.819 662.688Z" fill="#79D2C9" fill-opacity="0.7"/>
<path d="M659.056 706.835C659.056 711.515 655.346 715.29 650.792 715.29C646.238 715.29 642.559 711.515 642.559 706.835C642.559 702.124 646.268 698.286 650.792 698.286C655.316 698.286 659.056 702.124 659.056 706.835ZM645.575 706.835C645.575 709.799 647.897 712.232 650.822 712.232C653.748 712.232 656.07 709.799 656.07 706.835C656.07 703.809 653.748 701.375 650.822 701.375C647.867 701.375 645.575 703.809 645.575 706.835Z" fill="#79D2C9" fill-opacity="0.7"/>
<path d="M659.056 626.029C659.056 630.741 655.346 634.516 650.792 634.516C646.238 634.516 642.559 630.741 642.559 626.029C642.559 621.349 646.268 617.512 650.792 617.512C655.316 617.512 659.056 621.318 659.056 626.029ZM645.575 626.029C645.575 629.087 647.867 631.427 650.822 631.427C653.748 631.427 656.07 629.025 656.07 626.029C656.07 623.065 653.748 620.632 650.822 620.632C647.867 620.632 645.575 623.003 645.575 626.029Z" fill="#79D2C9" fill-opacity="0.7"/>
<path d="M685.838 627.183C685.838 631.863 682.159 635.669 677.605 635.669C673.081 635.669 669.371 631.863 669.371 627.183C669.371 622.503 673.081 618.665 677.605 618.665C682.159 618.665 685.838 622.471 685.838 627.183ZM672.357 627.183C672.357 630.178 674.709 632.58 677.605 632.58C680.56 632.58 682.883 630.24 682.883 627.183C682.883 624.125 680.56 621.785 677.605 621.785C674.709 621.785 672.357 624.187 672.357 627.183Z" fill="#79D2C9" fill-opacity="0.7"/>
<path d="M685.838 499.573C685.838 504.253 682.159 508.122 677.605 508.122C673.081 508.122 669.371 504.285 669.371 499.573C669.371 494.862 673.081 491.087 677.605 491.087C682.159 491.056 685.838 494.831 685.838 499.573ZM672.357 499.573C672.357 502.569 674.709 505.002 677.605 505.002C680.56 505.002 682.883 502.6 682.883 499.573C682.883 496.578 680.53 494.145 677.605 494.145C674.709 494.145 672.357 496.578 672.357 499.573Z" fill="#79D2C9" fill-opacity="0.7"/>
<path d="M652.3 533.708C652.3 538.419 648.591 542.257 644.067 542.257C639.543 542.257 635.833 538.45 635.833 533.708C635.833 529.028 639.543 525.19 644.067 525.19C648.591 525.19 652.3 529.028 652.3 533.708ZM638.819 533.708C638.819 536.734 641.141 539.137 644.067 539.137C646.962 539.137 649.315 536.734 649.315 533.708C649.315 530.713 646.962 528.279 644.067 528.279C641.141 528.31 638.819 530.744 638.819 533.708Z" fill="#79D2C9" fill-opacity="0.7"/>
<path d="M719.437 533.708C719.437 538.419 715.727 542.257 711.203 542.257C706.649 542.257 702.969 538.45 702.969 533.708C702.969 529.028 706.649 525.19 711.203 525.19C715.727 525.19 719.437 529.028 719.437 533.708ZM705.925 533.708C705.925 536.734 708.247 539.137 711.173 539.137C714.068 539.137 716.421 536.734 716.421 533.708C716.421 530.713 714.068 528.279 711.173 528.279C708.277 528.31 705.925 530.744 705.925 533.708Z" fill="#79D2C9" fill-opacity="0.7"/>
<path d="M712.681 307.444C712.681 312.124 708.971 315.962 704.447 315.962C699.923 315.962 696.274 312.124 696.274 307.444C696.274 302.733 699.923 298.927 704.447 298.927C708.971 298.927 712.681 302.764 712.681 307.444ZM699.23 307.444C699.23 310.44 701.582 312.873 704.447 312.873C707.343 312.873 709.695 310.44 709.695 307.444C709.695 304.418 707.343 302.016 704.447 302.016C701.582 302.016 699.23 304.449 699.23 307.444Z" fill="#79D2C9" fill-opacity="0.7"/>
<path d="M712.681 556.859C712.681 561.571 708.971 565.377 704.447 565.377C699.893 565.377 696.183 561.571 696.183 556.859C696.183 552.179 699.863 548.342 704.447 548.342C708.971 548.342 712.681 552.148 712.681 556.859ZM699.169 556.859C699.169 559.886 701.521 562.288 704.447 562.288C707.372 562.288 709.695 559.917 709.695 556.859C709.695 553.895 707.342 551.462 704.447 551.462C701.521 551.462 699.169 553.895 699.169 556.859Z" fill="#79D2C9" fill-opacity="0.7"/>
<path d="M739.493 367.474C739.493 372.185 735.783 375.991 731.229 375.991C726.735 375.991 723.056 372.154 723.056 367.474C723.056 362.794 726.735 358.956 731.229 358.956C735.783 358.956 739.493 362.762 739.493 367.474ZM726.072 367.474C726.072 370.469 728.394 372.902 731.259 372.902C734.185 372.902 736.507 370.469 736.507 367.474C736.507 364.478 734.185 362.045 731.259 362.045C728.394 362.045 726.072 364.478 726.072 367.474Z" fill="#79D2C9" fill-opacity="0.7"/>
<path d="M739.493 321.548C739.493 326.259 735.783 330.065 731.229 330.065C726.735 330.065 723.056 326.228 723.056 321.548C723.056 316.837 726.735 312.999 731.229 312.999C735.783 312.999 739.493 316.837 739.493 321.548ZM726.072 321.548C726.072 324.543 728.394 326.977 731.259 326.977C734.185 326.977 736.507 324.543 736.507 321.548C736.507 318.553 734.185 316.119 731.259 316.119C728.394 316.088 726.072 318.553 726.072 321.548Z" fill="#79D2C9" fill-opacity="0.7"/>
<path d="M685.838 129.542C685.838 134.253 682.159 138.06 677.605 138.06C673.081 138.06 669.371 134.222 669.371 129.542C669.371 124.862 673.081 121.024 677.605 121.024C682.159 121.024 685.838 124.831 685.838 129.542ZM672.357 129.542C672.357 132.537 674.709 134.971 677.605 134.971C680.53 134.971 682.883 132.537 682.883 129.542C682.883 126.547 680.53 124.113 677.605 124.113C674.709 124.144 672.357 126.547 672.357 129.542Z" fill="#79D2C9" fill-opacity="0.7"/>
<path d="M659.056 360.517C659.056 365.197 655.346 369.034 650.792 369.034C646.238 369.034 642.559 365.228 642.559 360.517C642.559 355.805 646.268 351.999 650.792 351.999C655.316 351.999 659.056 355.805 659.056 360.517ZM645.575 360.517C645.575 363.512 647.897 365.945 650.822 365.945C653.748 365.945 656.07 363.512 656.07 360.517C656.07 357.49 653.748 355.088 650.822 355.088C647.897 355.057 645.575 357.49 645.575 360.517Z" fill="#79D2C9" fill-opacity="0.7"/>
<path d="M712.681 187.2C712.681 191.911 708.971 195.718 704.447 195.718C699.893 195.718 696.183 191.88 696.183 187.2C696.183 182.489 699.863 178.683 704.447 178.683C708.971 178.683 712.681 182.52 712.681 187.2ZM699.169 187.2C699.169 190.195 701.521 192.629 704.447 192.629C707.342 192.629 709.695 190.195 709.695 187.2C709.695 184.205 707.342 181.771 704.447 181.771C701.521 181.771 699.169 184.205 699.169 187.2Z" fill="#79D2C9" fill-opacity="0.7"/>
<path d="M712.681 79.3418C712.681 84.053 708.971 87.8594 704.447 87.8594C699.893 87.8594 696.183 84.0218 696.183 79.3418C696.183 74.6306 699.863 70.8242 704.447 70.8242C708.971 70.8242 712.681 74.6618 712.681 79.3418ZM699.169 79.3418C699.169 82.337 701.521 84.7706 704.447 84.7706C707.342 84.7706 709.695 82.337 709.695 79.3418C709.695 76.3466 707.342 73.913 704.447 73.913C701.521 73.9442 699.169 76.3466 699.169 79.3418Z" fill="#79D2C9" fill-opacity="0.7"/>
<path d="M679.113 661.159V778.44H676.127V664.248H650.792V661.159H679.113Z" fill="#79D2C9" fill-opacity="0.7"/>
<path d="M679.113 506.532H676.127V621.13H679.113V506.532Z" fill="#79D2C9" fill-opacity="0.7"/>
<path d="M732.738 374.463V430.03H705.925V550.556H702.939V426.941H729.752V374.463H732.738Z" fill="#79D2C9" fill-opacity="0.7"/>
<path d="M732.737 223.361V314.558H729.751V226.45H705.925V261.737H676.127V136.531H679.113V258.617H702.939V223.361H732.737Z" fill="#79D2C9" fill-opacity="0.7"/>
<path d="M732.738 117.156V147.451H705.925V180.242H702.939V144.362H729.752V120.276H702.939V86.3301H705.925V117.156H732.738Z" fill="#79D2C9" fill-opacity="0.7"/>
<path d="M652.33 713.795H649.314V778.441H652.33V713.795Z" fill="#79D2C9" fill-opacity="0.7"/>
<path d="M705.925 314.559V374.057H679.113V438.173H652.3V495.113H625.458V549.651H652.3V619.195H649.315V552.771H622.502V492.055H649.315V435.053H676.127V370.968H702.939V314.559H705.925Z" fill="#79D2C9" fill-opacity="0.7"/>
<path d="M704.417 532.18H650.792V535.3H704.417V532.18Z" fill="#79D2C9" fill-opacity="0.7"/>
<path d="M679.113 1.55957V112.788H652.3V199.149H625.458V282.266H652.3V353.277H649.315V285.355H622.502V196.06H649.315V109.668H676.127V1.55957H679.113Z" fill="#79D2C9" fill-opacity="0.7"/>
<path d="M652.33 219.71H649.314V263.421H652.33V219.71Z" fill="#79D2C9" fill-opacity="0.7"/>
<path d="M602.446 647.682H599.43V778.441H602.446V647.682Z" fill="#79D2C9" fill-opacity="0.7"/>
<path d="M609.202 639.942C609.202 644.653 605.492 648.49 600.938 648.49C596.384 648.49 592.704 644.684 592.704 639.942C592.704 635.262 596.384 631.424 600.938 631.424C605.462 631.393 609.202 635.23 609.202 639.942ZM595.66 639.942C595.66 642.968 598.012 645.402 600.938 645.402C603.833 645.402 606.186 642.968 606.186 639.942C606.186 636.946 603.833 634.513 600.938 634.513C598.012 634.513 595.66 636.946 595.66 639.942Z" fill="#79D2C9" fill-opacity="0.7"/>
<path d="M615.867 435.459C615.867 440.139 612.187 443.977 607.694 443.977C603.139 443.977 599.46 440.17 599.46 435.459C599.46 430.748 603.139 426.941 607.694 426.941C612.187 426.941 615.867 430.779 615.867 435.459ZM602.446 435.459C602.446 438.517 604.738 440.857 607.694 440.857C610.529 440.857 612.881 438.454 612.881 435.459C612.881 432.433 610.529 430.03 607.694 430.03C604.768 430.03 602.446 432.433 602.446 435.459Z" fill="#79D2C9" fill-opacity="0.7"/>
<path d="M582.359 572.584C582.359 577.295 578.68 581.07 574.126 581.07C569.602 581.07 565.862 577.295 565.862 572.584C565.862 567.904 569.572 564.035 574.126 564.035C578.68 564.035 582.359 567.873 582.359 572.584ZM568.878 572.584C568.878 575.579 571.23 577.982 574.126 577.982C577.051 577.982 579.404 575.579 579.404 572.584C579.404 569.589 577.051 567.155 574.126 567.155C571.2 567.155 568.878 569.558 568.878 572.584Z" fill="#79D2C9" fill-opacity="0.7"/>
<path d="M615.867 506.532C615.867 511.212 612.187 515.05 607.694 515.05C603.139 515.05 599.46 511.212 599.46 506.532C599.46 501.821 603.139 498.015 607.694 498.015C612.187 498.015 615.867 501.821 615.867 506.532ZM602.446 506.532C602.446 509.527 604.768 511.961 607.694 511.961C610.529 511.961 612.881 509.527 612.881 506.532C612.881 503.506 610.529 501.072 607.694 501.072C604.768 501.072 602.446 503.537 602.446 506.532Z" fill="#79D2C9" fill-opacity="0.7"/>
<path d="M441.482 662.688C441.482 667.399 437.803 671.236 433.249 671.236C428.755 671.236 425.075 667.43 425.075 662.688C425.075 658.008 428.725 654.201 433.249 654.201C437.803 654.201 441.482 658.008 441.482 662.688ZM428.061 662.688C428.061 665.714 430.414 668.148 433.249 668.148C436.174 668.148 438.527 665.714 438.527 662.688C438.527 659.661 436.204 657.29 433.249 657.29C430.414 657.29 428.061 659.755 428.061 662.688Z" fill="#79D2C9" fill-opacity="0.7"/>
<path d="M448.208 706.804C448.208 711.484 444.528 715.29 439.974 715.29C435.45 715.29 431.74 711.484 431.74 706.804C431.74 702.092 435.42 698.286 439.974 698.286C444.558 698.317 448.208 702.092 448.208 706.804ZM434.726 706.804C434.726 709.799 437.079 712.232 439.974 712.232C442.899 712.232 445.252 709.799 445.252 706.804C445.252 703.746 442.93 701.375 439.974 701.375C437.079 701.375 434.726 703.84 434.726 706.804Z" fill="#79D2C9" fill-opacity="0.7"/>
<path d="M448.208 626.027C448.208 630.739 444.528 634.514 439.974 634.514C435.45 634.514 431.74 630.739 431.74 626.027C431.74 621.347 435.42 617.479 439.974 617.479C444.558 617.479 448.208 621.316 448.208 626.027ZM434.726 626.027C434.726 629.023 437.079 631.425 439.974 631.425C442.93 631.425 445.252 629.085 445.252 626.027C445.252 623.032 442.899 620.599 439.974 620.599C437.079 620.599 434.726 623.032 434.726 626.027Z" fill="#79D2C9" fill-opacity="0.7"/>
<path d="M475.05 627.183C475.05 631.863 471.34 635.669 466.816 635.669C462.292 635.669 458.643 631.863 458.643 627.183C458.643 622.503 462.292 618.634 466.816 618.634C471.34 618.634 475.05 622.471 475.05 627.183ZM461.629 627.183C461.629 630.178 463.951 632.58 466.816 632.58C469.742 632.58 472.064 630.24 472.064 627.183C472.064 624.156 469.712 621.754 466.816 621.754C463.951 621.754 461.629 624.156 461.629 627.183Z" fill="#79D2C9" fill-opacity="0.7"/>
<path d="M475.05 499.573C475.05 504.253 471.34 508.122 466.816 508.122C462.292 508.122 458.643 504.285 458.643 499.573C458.643 494.862 462.292 491.087 466.816 491.087C471.34 491.056 475.05 494.831 475.05 499.573ZM461.629 499.573C461.629 502.569 463.951 505.002 466.816 505.002C469.742 505.002 472.064 502.6 472.064 499.573C472.064 496.516 469.742 494.145 466.816 494.145C463.951 494.145 461.629 496.578 461.629 499.573Z" fill="#79D2C9" fill-opacity="0.7"/>
<path d="M441.482 533.708C441.482 538.419 437.803 542.226 433.249 542.226C428.755 542.226 425.075 538.45 425.075 533.708C425.075 529.028 428.725 525.19 433.249 525.19C437.803 525.19 441.482 529.028 441.482 533.708ZM428.061 533.708C428.061 536.703 430.414 539.106 433.249 539.106C436.204 539.106 438.527 536.766 438.527 533.708C438.527 530.713 436.174 528.279 433.249 528.279C430.414 528.31 428.061 530.744 428.061 533.708Z" fill="#79D2C9" fill-opacity="0.7"/>
<path d="M508.588 533.708C508.588 538.419 504.909 542.226 500.355 542.226C495.831 542.226 492.091 538.45 492.091 533.708C492.091 529.028 495.801 525.19 500.355 525.19C504.909 525.19 508.588 529.028 508.588 533.708ZM495.107 533.708C495.107 536.703 497.459 539.106 500.355 539.106C503.31 539.106 505.633 536.766 505.633 533.708C505.633 530.713 503.28 528.279 500.355 528.279C497.459 528.31 495.107 530.744 495.107 533.708Z" fill="#79D2C9" fill-opacity="0.7"/>
<path d="M501.862 307.444C501.862 312.124 498.213 315.962 493.689 315.962C489.165 315.962 485.425 312.124 485.425 307.444C485.425 302.733 489.135 298.927 493.689 298.927C498.243 298.927 501.862 302.764 501.862 307.444ZM488.411 307.444C488.411 310.44 490.764 312.873 493.659 312.873C496.524 312.873 498.877 310.44 498.877 307.444C498.877 304.418 496.524 302.016 493.659 302.016C490.794 302.016 488.411 304.449 488.411 307.444Z" fill="#79D2C9" fill-opacity="0.7"/>
<path d="M501.862 556.858C501.862 561.57 498.183 565.376 493.629 565.376C489.135 565.376 485.425 561.57 485.425 556.858C485.425 552.178 489.105 548.341 493.629 548.341C498.183 548.341 501.862 552.147 501.862 556.858ZM488.411 556.858C488.411 559.885 490.764 562.287 493.599 562.287C496.524 562.287 498.877 559.885 498.877 556.858C498.877 553.832 496.554 551.461 493.599 551.461C490.794 551.461 488.411 553.894 488.411 556.858Z" fill="#79D2C9" fill-opacity="0.7"/>
<path d="M528.675 367.473C528.675 372.184 525.025 375.99 520.501 375.99C515.947 375.99 512.268 372.153 512.268 367.473C512.268 362.793 515.947 358.955 520.501 358.955C524.995 358.955 528.675 362.761 528.675 367.473ZM515.223 367.473C515.223 370.468 517.576 372.901 520.501 372.901C523.336 372.901 525.689 370.468 525.689 367.473C525.689 364.477 523.336 362.044 520.501 362.044C517.576 362.044 515.223 364.477 515.223 367.473Z" fill="#79D2C9" fill-opacity="0.7"/>
<path d="M528.675 321.547C528.675 326.258 525.025 330.064 520.501 330.064C515.947 330.064 512.268 326.227 512.268 321.547C512.268 316.836 515.947 312.998 520.501 312.998C524.995 312.998 528.675 316.836 528.675 321.547ZM515.223 321.547C515.223 324.542 517.576 326.976 520.501 326.976C523.336 326.976 525.689 324.542 525.689 321.547C525.689 318.552 523.336 316.118 520.501 316.118C517.576 316.087 515.223 318.552 515.223 321.547Z" fill="#79D2C9" fill-opacity="0.7"/>
<path d="M475.05 129.542C475.05 134.253 471.34 138.06 466.816 138.06C462.292 138.06 458.643 134.222 458.643 129.542C458.643 124.862 462.292 121.024 466.816 121.024C471.34 121.024 475.05 124.831 475.05 129.542ZM461.629 129.542C461.629 132.537 463.951 134.971 466.816 134.971C469.712 134.971 472.064 132.537 472.064 129.542C472.064 126.547 469.712 124.113 466.816 124.113C463.951 124.144 461.629 126.547 461.629 129.542Z" fill="#79D2C9" fill-opacity="0.7"/>
<path d="M448.208 360.516C448.208 365.196 444.528 369.033 439.974 369.033C435.45 369.033 431.74 365.227 431.74 360.516C431.74 355.805 435.42 351.998 439.974 351.998C444.558 351.967 448.208 355.805 448.208 360.516ZM434.726 360.516C434.726 363.511 437.079 365.945 439.974 365.945C442.899 365.945 445.252 363.511 445.252 360.516C445.252 357.489 442.899 355.087 439.974 355.087C437.079 355.056 434.726 357.489 434.726 360.516Z" fill="#79D2C9" fill-opacity="0.7"/>
<path d="M501.862 187.2C501.862 191.911 498.183 195.718 493.629 195.718C489.135 195.718 485.425 191.88 485.425 187.2C485.425 182.489 489.105 178.683 493.629 178.683C498.183 178.683 501.862 182.52 501.862 187.2ZM488.411 187.2C488.411 190.195 490.764 192.629 493.599 192.629C496.524 192.629 498.877 190.195 498.877 187.2C498.877 184.205 496.524 181.771 493.599 181.771C490.794 181.771 488.411 184.205 488.411 187.2Z" fill="#79D2C9" fill-opacity="0.7"/>
<path d="M501.862 79.3418C501.862 84.053 498.183 87.8594 493.629 87.8594C489.135 87.8594 485.425 84.0218 485.425 79.3418C485.425 74.6306 489.105 70.8242 493.629 70.8242C498.183 70.8242 501.862 74.6618 501.862 79.3418ZM488.411 79.3418C488.411 82.337 490.764 84.7706 493.599 84.7706C496.524 84.7706 498.877 82.337 498.877 79.3418C498.877 76.3466 496.524 73.913 493.599 73.913C490.794 73.9442 488.411 76.3466 488.411 79.3418Z" fill="#79D2C9" fill-opacity="0.7"/>
<path d="M582.359 390C582.359 394.711 578.68 398.518 574.126 398.518C569.602 398.518 565.862 394.68 565.862 390C565.862 385.32 569.572 381.482 574.126 381.482C578.68 381.482 582.359 385.289 582.359 390ZM568.878 390C568.878 392.995 571.23 395.429 574.126 395.429C577.051 395.429 579.404 392.995 579.404 390C579.404 387.005 577.051 384.571 574.126 384.571C571.23 384.571 568.878 387.005 568.878 390Z" fill="#79D2C9" fill-opacity="0.7"/>
<path d="M548.822 283.171C548.822 287.882 545.112 291.689 540.588 291.689C536.064 291.689 532.324 287.851 532.324 283.171C532.324 278.491 536.034 274.653 540.588 274.653C545.142 274.653 548.822 278.46 548.822 283.171ZM535.31 283.171C535.31 286.166 537.632 288.6 540.558 288.6C543.453 288.6 545.806 286.166 545.806 283.171C545.806 280.176 543.453 277.742 540.558 277.742C537.632 277.742 535.31 280.176 535.31 283.171Z" fill="#79D2C9" fill-opacity="0.7"/>
<path d="M582.299 259.086C582.299 263.797 578.65 267.604 574.126 267.604C569.602 267.604 565.862 263.766 565.862 259.086C565.862 254.406 569.572 250.568 574.126 250.568C578.68 250.568 582.299 254.375 582.299 259.086ZM568.878 259.086C568.878 262.081 571.23 264.515 574.126 264.515C576.991 264.515 579.343 262.081 579.343 259.086C579.343 256.091 576.961 253.657 574.095 253.657C571.23 253.657 568.878 256.091 568.878 259.086Z" fill="#79D2C9" fill-opacity="0.7"/>
<path d="M555.487 151.757C555.487 156.468 551.807 160.274 547.283 160.274C542.759 160.274 539.05 156.437 539.05 151.757C539.05 147.077 542.759 143.239 547.283 143.239C551.807 143.239 555.487 147.077 555.487 151.757ZM542.066 151.757C542.066 154.783 544.388 157.186 547.314 157.186C550.179 157.186 552.501 154.752 552.501 151.757C552.501 148.762 550.179 146.328 547.314 146.328C544.388 146.328 542.066 148.762 542.066 151.757Z" fill="#79D2C9" fill-opacity="0.7"/>
<path d="M582.299 107.577C582.299 112.288 578.65 116.095 574.126 116.095C569.602 116.095 565.862 112.257 565.862 107.577C565.862 102.866 569.572 99.0596 574.126 99.0596C578.68 99.0596 582.299 102.866 582.299 107.577ZM568.878 107.577C568.878 110.572 571.23 113.006 574.126 113.006C576.991 113.006 579.343 110.572 579.343 107.577C579.343 104.582 576.991 102.148 574.126 102.148C571.23 102.148 568.878 104.582 568.878 107.577Z" fill="#79D2C9" fill-opacity="0.7"/>
<path d="M528.675 8.5176C528.675 13.2288 525.025 17.0352 520.501 17.0352C515.947 17.0352 512.268 13.1976 512.268 8.5176C512.268 3.8376 515.947 0 520.501 0C524.995 0 528.675 3.8376 528.675 8.5176ZM515.223 8.5176C515.223 11.5128 517.576 13.9464 520.501 13.9464C523.336 13.9464 525.689 11.5128 525.689 8.5176C525.689 5.5224 523.336 3.0888 520.501 3.0888C517.546 3.0888 515.223 5.4912 515.223 8.5176Z" fill="#79D2C9" fill-opacity="0.7"/>
<path d="M609.202 269.256C609.202 273.936 605.492 277.774 600.938 277.774C596.384 277.774 592.704 273.936 592.704 269.256C592.704 264.545 596.384 260.738 600.938 260.738C605.462 260.707 609.202 264.545 609.202 269.256ZM595.66 269.256C595.66 272.251 598.012 274.685 600.938 274.685C603.833 274.685 606.186 272.251 606.186 269.256C606.186 266.23 603.833 263.827 600.938 263.827C598.012 263.827 595.66 266.23 595.66 269.256Z" fill="#79D2C9" fill-opacity="0.7"/>
<path d="M609.202 39.2492C609.202 43.9604 605.492 47.7668 600.938 47.7668C596.384 47.7668 592.704 43.9292 592.704 39.2492C592.704 34.5692 596.384 30.7316 600.938 30.7316C605.462 30.7004 609.202 34.538 609.202 39.2492ZM595.66 39.2492C595.66 42.2444 598.012 44.678 600.938 44.678C603.833 44.678 606.186 42.2444 606.186 39.2492C606.186 36.254 603.833 33.8204 600.938 33.8204C598.012 33.8204 595.66 36.254 595.66 39.2492Z" fill="#79D2C9" fill-opacity="0.7"/>
<path d="M582.299 298.21C582.299 302.921 578.65 306.728 574.126 306.728C569.602 306.728 565.862 302.89 565.862 298.21C565.862 293.53 569.572 289.692 574.126 289.692C578.68 289.692 582.299 293.499 582.299 298.21ZM568.878 298.21C568.878 301.205 571.23 303.639 574.126 303.639C576.991 303.639 579.343 301.205 579.343 298.21C579.343 295.215 576.991 292.781 574.126 292.781C571.23 292.75 568.878 295.184 568.878 298.21Z" fill="#79D2C9" fill-opacity="0.7"/>
<path d="M555.487 393.09C555.487 397.801 551.807 401.607 547.283 401.607C542.759 401.607 539.05 397.77 539.05 393.09C539.05 388.41 542.759 384.572 547.283 384.572C551.807 384.572 555.487 388.379 555.487 393.09ZM542.066 393.09C542.066 396.085 544.388 398.519 547.314 398.519C550.179 398.519 552.501 396.085 552.501 393.09C552.501 390.095 550.179 387.661 547.314 387.661C544.388 387.661 542.066 390.095 542.066 393.09Z" fill="#79D2C9" fill-opacity="0.7"/>
<path d="M555.487 675.355C555.487 680.035 551.807 683.872 547.283 683.872C542.759 683.872 539.05 680.035 539.05 675.355C539.05 670.643 542.759 666.837 547.283 666.837C551.807 666.837 555.487 670.612 555.487 675.355ZM542.066 675.355C542.066 678.35 544.388 680.783 547.314 680.783C550.179 680.783 552.501 678.35 552.501 675.355C552.501 672.359 550.179 669.926 547.314 669.926C544.358 669.926 542.066 672.297 542.066 675.355Z" fill="#79D2C9" fill-opacity="0.7"/>
<path d="M575.634 578.385H572.648V778.439H575.634V578.385Z" fill="#79D2C9" fill-opacity="0.7"/>
<path d="M548.822 682.313H545.806V778.441H548.822V682.313Z" fill="#79D2C9" fill-opacity="0.7"/>
<path d="M600.938 504.971V508.091H548.821V619.475H521.979V778.439H518.993V616.386H545.805V504.971H600.938Z" fill="#79D2C9" fill-opacity="0.7"/>
<path d="M600.938 433.898V437.018H572.648V409.031H548.821V459.544H521.979V573.143H495.106V778.439H492.121V570.054H518.993V456.424H545.805V405.942H575.603V433.898H600.938Z" fill="#79D2C9" fill-opacity="0.7"/>
<path d="M468.325 661.159V778.44H465.308V664.248H439.974V661.159H468.325Z" fill="#79D2C9" fill-opacity="0.7"/>
<path d="M468.325 506.532H465.309V621.13H468.325V506.532Z" fill="#79D2C9" fill-opacity="0.7"/>
<path d="M521.979 374.462V430.029H495.106V550.555H492.121V426.94H518.993V374.462H521.979Z" fill="#79D2C9" fill-opacity="0.7"/>
<path d="M602.446 281.611V334.246H575.604V383.199H572.648V331.157H599.43V284.731H547.313V281.611H602.446Z" fill="#79D2C9" fill-opacity="0.7"/>
<path d="M575.604 305.167V320.954H548.822V386.1H545.806V317.865H572.648V305.167H575.604Z" fill="#79D2C9" fill-opacity="0.7"/>
<path d="M521.979 223.361V314.558H518.993V226.45H495.107V261.737H465.309V136.531H468.325V258.617H492.121V223.361H521.979Z" fill="#79D2C9" fill-opacity="0.7"/>
<path d="M521.979 117.156V147.451H495.106V180.242H492.121V144.362H518.993V120.276H492.181V86.3301H495.167V117.156H521.979Z" fill="#79D2C9" fill-opacity="0.7"/>
<path d="M602.446 46.207V131.102H575.604V185.671H602.446V261.83H599.43V188.76H572.648V128.013H599.43V46.207H602.446Z" fill="#79D2C9" fill-opacity="0.7"/>
<path d="M575.604 203.299V252.096H572.648V206.388H545.806V158.246H548.822V203.299H575.604Z" fill="#79D2C9" fill-opacity="0.7"/>
<path d="M575.604 54.382V100.62H572.648V57.4708H548.821V79.81H518.993V17.3164H521.979V76.7212H545.805V54.382H575.604Z" fill="#79D2C9" fill-opacity="0.7"/>
<path d="M441.482 713.795H438.496V778.441H441.482V713.795Z" fill="#79D2C9" fill-opacity="0.7"/>
<path d="M495.167 314.559V374.057H468.325V438.173H441.482V495.113H414.67V549.651H441.482V619.195H438.496V552.771H411.684V492.055H438.496V435.053H465.309V370.968H492.181V314.559H495.167Z" fill="#79D2C9" fill-opacity="0.7"/>
<path d="M615.867 478.857C615.867 483.569 612.188 487.344 607.694 487.344C603.14 487.344 599.46 483.569 599.46 478.857C599.46 474.177 603.14 470.309 607.694 470.309C612.188 470.309 615.867 474.146 615.867 478.857ZM602.446 478.857C602.446 481.915 604.738 484.286 607.694 484.286C610.529 484.286 612.882 481.853 612.882 478.857C612.882 475.862 610.529 473.429 607.694 473.429C604.769 473.429 602.446 475.862 602.446 478.857Z" fill="#79D2C9" fill-opacity="0.7"/>
<path d="M548.822 478.857C548.822 483.569 545.112 487.344 540.588 487.344C536.064 487.344 532.324 483.569 532.324 478.857C532.324 474.177 536.034 470.309 540.588 470.309C545.142 470.309 548.822 474.146 548.822 478.857ZM535.31 478.857C535.31 481.915 537.602 484.286 540.558 484.286C543.453 484.286 545.806 481.853 545.806 478.857C545.806 475.862 543.453 473.429 540.558 473.429C537.632 473.429 535.31 475.862 535.31 478.857Z" fill="#79D2C9" fill-opacity="0.7"/>
<path d="M600.938 477.328H547.313V480.417H600.938V477.328Z" fill="#79D2C9" fill-opacity="0.7"/>
<path d="M242.939 686.709C242.939 691.42 239.259 695.195 234.765 695.195C230.211 695.195 226.532 691.42 226.532 686.709C226.532 682.029 230.241 678.16 234.765 678.16C239.259 678.16 242.939 681.998 242.939 686.709ZM229.518 686.709C229.518 689.767 231.84 692.107 234.765 692.107C237.6 692.107 239.953 689.704 239.953 686.709C239.953 683.714 237.6 681.28 234.765 681.28C231.84 681.28 229.518 683.714 229.518 686.709Z" fill="#79D2C9" fill-opacity="0.7"/>
<path d="M175.863 686.709C175.863 691.42 172.153 695.195 167.629 695.195C163.075 695.195 159.396 691.42 159.396 686.709C159.396 682.029 163.105 678.16 167.629 678.16C172.183 678.16 175.863 681.998 175.863 686.709ZM162.381 686.709C162.381 689.767 164.704 692.107 167.629 692.107C170.525 692.107 172.877 689.704 172.877 686.709C172.877 683.714 170.525 681.28 167.629 681.28C164.734 681.28 162.381 683.714 162.381 686.709Z" fill="#79D2C9" fill-opacity="0.7"/>
<path d="M228.009 685.151H174.385V688.271H228.009V685.151Z" fill="#79D2C9" fill-opacity="0.7"/>
<path d="M201.198 690.736C205.722 690.736 209.401 694.512 209.401 699.192C209.401 703.872 205.722 707.678 201.198 707.678C196.643 707.678 192.964 703.872 192.964 699.192C192.964 694.512 196.643 690.736 201.198 690.736ZM201.198 704.62C204.123 704.62 206.415 702.218 206.415 699.192C206.415 696.228 204.063 693.794 201.198 693.794C198.272 693.794 195.95 696.228 195.95 699.192C195.95 702.187 198.272 704.62 201.198 704.62Z" fill="#79D2C9" fill-opacity="0.7"/>
<path d="M201.198 760.096C205.722 760.096 209.401 763.902 209.401 768.582C209.401 773.293 205.722 777.1 201.198 777.1C196.643 777.1 192.964 773.293 192.964 768.582C192.964 763.902 196.643 760.096 201.198 760.096ZM201.198 774.073C204.123 774.073 206.415 771.671 206.415 768.613C206.415 765.618 204.063 763.185 201.198 763.185C198.272 763.185 195.95 765.618 195.95 768.613C195.95 771.609 198.272 774.073 201.198 774.073Z" fill="#79D2C9" fill-opacity="0.7"/>
<path d="M202.675 706.182H199.689V761.624H202.675V706.182Z" fill="#79D2C9" fill-opacity="0.7"/>
<path d="M201.198 301.329C205.722 301.329 209.401 305.135 209.401 309.784C209.401 314.495 205.722 318.302 201.198 318.302C196.643 318.302 192.964 314.495 192.964 309.784C192.964 305.104 196.643 301.329 201.198 301.329ZM201.198 315.244C204.123 315.244 206.415 312.842 206.415 309.816C206.415 306.883 204.063 304.449 201.198 304.449C198.272 304.449 195.95 306.883 195.95 309.816C195.95 312.78 198.272 315.244 201.198 315.244Z" fill="#79D2C9" fill-opacity="0.7"/>
<path d="M201.198 370.687C205.722 370.687 209.401 374.524 209.401 379.235C209.401 383.947 205.722 387.753 201.198 387.753C196.643 387.753 192.964 383.947 192.964 379.235C192.964 374.524 196.643 370.687 201.198 370.687ZM201.198 384.664C204.123 384.664 206.415 382.262 206.415 379.235C206.415 376.24 204.063 373.807 201.198 373.807C198.272 373.807 195.95 376.24 195.95 379.235C195.95 382.231 198.272 384.664 201.198 384.664Z" fill="#79D2C9" fill-opacity="0.7"/>
<path d="M202.675 316.773H199.689V372.247H202.675V316.773Z" fill="#79D2C9" fill-opacity="0.7"/>
<path d="M622.533 324.262C627.057 324.262 630.766 328.068 630.766 332.748C630.766 337.459 627.087 341.266 622.533 341.266C617.979 341.266 614.299 337.428 614.299 332.748C614.269 328.068 617.948 324.262 622.533 324.262ZM622.533 338.177C625.458 338.177 627.75 335.775 627.75 332.748C627.75 329.815 625.398 327.382 622.533 327.382C619.607 327.382 617.285 329.815 617.285 332.748C617.285 335.743 619.607 338.177 622.533 338.177Z" fill="#79D2C9" fill-opacity="0.7"/>
<path d="M622.533 393.65C627.057 393.65 630.766 397.488 630.766 402.168C630.766 406.879 627.087 410.686 622.533 410.686C617.979 410.686 614.299 406.879 614.299 402.168C614.269 397.457 617.948 393.65 622.533 393.65ZM622.533 407.597C625.458 407.597 627.75 405.194 627.75 402.168C627.75 399.173 625.398 396.739 622.533 396.739C619.607 396.739 617.285 399.173 617.285 402.168C617.285 405.163 619.607 407.597 622.533 407.597Z" fill="#79D2C9" fill-opacity="0.7"/>
<path d="M624.041 339.706H621.025V395.18H624.041V339.706Z" fill="#79D2C9" fill-opacity="0.7"/>
<path d="M705.955 665.655C710.479 665.655 714.159 669.431 714.159 674.111C714.159 678.791 710.51 682.659 705.955 682.659C701.401 682.659 697.722 678.822 697.722 674.111C697.722 669.431 701.401 665.655 705.955 665.655ZM705.955 679.539C708.881 679.539 711.173 677.137 711.173 674.111C711.173 671.147 708.821 668.744 705.955 668.744C703.03 668.744 700.677 671.147 700.677 674.111C700.708 677.106 703.06 679.539 705.955 679.539Z" fill="#79D2C9" fill-opacity="0.7"/>
<path d="M705.955 735.043C710.479 735.043 714.159 738.849 714.159 743.561C714.159 748.241 710.51 752.078 705.955 752.078C701.401 752.078 697.722 748.241 697.722 743.561C697.722 738.849 701.401 735.043 705.955 735.043ZM705.955 748.989C708.881 748.989 711.173 746.587 711.173 743.561C711.173 740.534 708.821 738.101 705.955 738.101C703.03 738.101 700.677 740.534 700.677 743.561C700.708 746.556 703.06 748.989 705.955 748.989Z" fill="#79D2C9" fill-opacity="0.7"/>
<path d="M707.463 681.099H704.478V736.572H707.463V681.099Z" fill="#79D2C9" fill-opacity="0.7"/>
<path d="M419.918 15.7559C424.472 15.7559 428.121 19.5623 428.121 24.2111C428.121 28.8911 424.472 32.7287 419.918 32.7287C415.394 32.7287 411.684 28.8911 411.684 24.2111C411.684 19.5311 415.394 15.7559 419.918 15.7559ZM419.918 29.6399C422.873 29.6399 425.166 27.2375 425.166 24.2111C425.166 21.2471 422.813 18.8447 419.918 18.8447C417.022 18.8447 414.67 21.2783 414.67 24.2111C414.67 27.2375 417.022 29.6399 419.918 29.6399Z" fill="#79D2C9" fill-opacity="0.7"/>
<path d="M419.918 85.1445C424.472 85.1445 428.121 88.9821 428.121 93.6621C428.121 98.3421 424.472 102.18 419.918 102.18C415.394 102.18 411.684 98.3421 411.684 93.6621C411.684 88.9509 415.394 85.1445 419.918 85.1445ZM419.918 99.0909C422.873 99.0909 425.166 96.6885 425.166 93.6621C425.166 90.6357 422.813 88.2333 419.918 88.2333C417.022 88.2333 414.67 90.6669 414.67 93.6621C414.67 96.6573 417.022 99.0909 419.918 99.0909Z" fill="#79D2C9" fill-opacity="0.7"/>
<path d="M421.426 31.2002H418.41V86.6738H421.426V31.2002Z" fill="#79D2C9" fill-opacity="0.7"/>
<path d="M635.653 15.7559C640.177 15.7559 643.856 19.5623 643.856 24.2111C643.856 28.8911 640.177 32.7287 635.653 32.7287C631.129 32.7287 627.389 28.8911 627.389 24.2111C627.419 19.5311 631.129 15.7559 635.653 15.7559ZM635.653 29.6399C638.608 29.6399 640.87 27.2375 640.87 24.2111C640.87 21.2471 638.548 18.8447 635.653 18.8447C632.727 18.8447 630.405 21.2783 630.405 24.2111C630.435 27.2375 632.757 29.6399 635.653 29.6399Z" fill="#79D2C9" fill-opacity="0.7"/>
<path d="M635.653 85.1445C640.177 85.1445 643.856 88.9821 643.856 93.6621C643.856 98.3421 640.177 102.18 635.653 102.18C631.129 102.18 627.389 98.3421 627.389 93.6621C627.419 88.9509 631.129 85.1445 635.653 85.1445ZM635.653 99.0909C638.608 99.0909 640.87 96.6885 640.87 93.6621C640.87 90.6357 638.548 88.2333 635.653 88.2333C632.727 88.2333 630.405 90.6669 630.405 93.6621C630.435 96.6573 632.757 99.0909 635.653 99.0909Z" fill="#79D2C9" fill-opacity="0.7"/>
<path d="M637.191 31.2002H634.175V86.6738H637.191V31.2002Z" fill="#79D2C9" fill-opacity="0.7"/>
<path d="M727.67 15.7246C732.194 15.7246 735.843 19.531 735.843 24.1798C735.843 28.8598 732.194 32.6974 727.67 32.6974C723.116 32.6974 719.406 28.8598 719.406 24.1798C719.436 19.4998 723.116 15.7246 727.67 15.7246ZM727.67 29.6086C730.596 29.6086 732.888 27.2062 732.888 24.1798C732.888 21.2158 730.535 18.8134 727.67 18.8134C724.745 18.8134 722.392 21.247 722.392 24.1798C722.392 27.2062 724.745 29.6086 727.67 29.6086Z" fill="#79D2C9" fill-opacity="0.7"/>
<path d="M727.67 85.1133C732.194 85.1133 735.843 88.9509 735.843 93.6309C735.843 98.3109 732.194 102.148 727.67 102.148C723.116 102.148 719.406 98.3109 719.406 93.6309C719.436 88.9197 723.116 85.1133 727.67 85.1133ZM727.67 99.0597C730.596 99.0597 732.888 96.6573 732.888 93.6309C732.888 90.6045 730.535 88.2021 727.67 88.2021C724.745 88.2021 722.392 90.6357 722.392 93.6309C722.392 96.6261 724.745 99.0597 727.67 99.0597Z" fill="#79D2C9" fill-opacity="0.7"/>
<path d="M729.148 31.1689H726.162V86.6425H729.148V31.1689Z" fill="#79D2C9" fill-opacity="0.7"/>
<path d="M727.67 568.775C732.194 568.775 735.843 572.551 735.843 577.262C735.843 581.942 732.194 585.748 727.67 585.748C723.116 585.748 719.406 581.942 719.406 577.262C719.436 572.582 723.116 568.775 727.67 568.775ZM727.67 582.691C730.596 582.691 732.888 580.288 732.888 577.262C732.888 574.298 730.535 571.864 727.67 571.864C724.745 571.864 722.392 574.298 722.392 577.262C722.392 580.257 724.745 582.691 727.67 582.691Z" fill="#79D2C9" fill-opacity="0.7"/>
<path d="M727.67 638.164C732.194 638.164 735.843 641.97 735.843 646.682C735.843 651.393 732.194 655.199 727.67 655.199C723.116 655.199 719.406 651.393 719.406 646.682C719.436 641.97 723.116 638.164 727.67 638.164ZM727.67 652.11C730.596 652.11 732.888 649.708 732.888 646.65C732.888 643.655 730.535 641.222 727.67 641.222C724.745 641.222 722.392 643.655 722.392 646.65C722.392 649.677 724.745 652.11 727.67 652.11Z" fill="#79D2C9" fill-opacity="0.7"/>
<path d="M729.148 584.251H726.162V639.693H729.148V584.251Z" fill="#79D2C9" fill-opacity="0.7"/>
<path d="M411.714 369.283C416.268 369.283 419.948 373.09 419.948 377.738C419.948 382.45 416.299 386.256 411.714 386.256C407.19 386.256 403.481 382.418 403.481 377.738C403.45 373.09 407.16 369.283 411.714 369.283ZM411.714 383.198C414.67 383.198 416.962 380.796 416.962 377.77C416.962 374.837 414.61 372.403 411.714 372.403C408.819 372.403 406.466 374.837 406.466 377.77C406.466 380.765 408.819 383.198 411.714 383.198Z" fill="#79D2C9" fill-opacity="0.7"/>
<path d="M411.714 438.702C416.268 438.702 419.948 442.509 419.948 447.22C419.948 451.9 416.299 455.706 411.714 455.706C407.19 455.706 403.481 451.9 403.481 447.22C403.45 442.509 407.16 438.702 411.714 438.702ZM411.714 452.649C414.67 452.649 416.962 450.246 416.962 447.22C416.962 444.193 414.61 441.76 411.714 441.76C408.819 441.76 406.466 444.193 406.466 447.22C406.466 450.215 408.819 452.649 411.714 452.649Z" fill="#79D2C9" fill-opacity="0.7"/>
<path d="M413.222 384.757H410.236V440.23H413.222V384.757Z" fill="#79D2C9" fill-opacity="0.7"/>
<path d="M607.694 529.371C612.218 529.371 615.897 533.146 615.897 537.826C615.897 542.506 612.218 546.344 607.694 546.344C603.139 546.344 599.46 542.506 599.46 537.826C599.46 533.146 603.109 529.371 607.694 529.371ZM607.694 543.255C610.619 543.255 612.911 540.853 612.911 537.826C612.911 534.862 610.559 532.429 607.694 532.429C604.768 532.429 602.446 534.862 602.446 537.826C602.446 540.822 604.768 543.255 607.694 543.255Z" fill="#79D2C9" fill-opacity="0.7"/>
<path d="M607.694 598.729C612.218 598.729 615.897 602.535 615.897 607.277C615.897 611.957 612.218 615.764 607.694 615.764C603.14 615.764 599.46 611.957 599.46 607.277C599.43 602.566 603.109 598.729 607.694 598.729ZM607.694 612.706C610.619 612.706 612.911 610.304 612.911 607.277C612.911 604.251 610.559 601.817 607.694 601.817C604.768 601.817 602.446 604.251 602.446 607.277C602.446 610.273 604.768 612.706 607.694 612.706Z" fill="#79D2C9" fill-opacity="0.7"/>
<path d="M609.202 544.814H606.186V600.288H609.202V544.814Z" fill="#79D2C9" fill-opacity="0.7"/>
<path d="M493.659 532.18H439.974V535.3H493.659V532.18Z" fill="#79D2C9" fill-opacity="0.7"/>
<path d="M468.325 1.55957V112.788H441.482V199.149H414.67V282.266H441.482V353.277H438.496V285.355H411.684V196.06H438.496V109.668H465.309V1.55957H468.325Z" fill="#79D2C9" fill-opacity="0.7"/>
<path d="M441.482 219.71H438.496V263.421H441.482V219.71Z" fill="#79D2C9" fill-opacity="0.7"/>
<path d="M391.929 1.55957H388.913V132.319H391.929V1.55957Z" fill="#79D2C9" fill-opacity="0.7"/>
<path d="M398.655 140.057C398.655 144.768 394.975 148.574 390.421 148.574C385.897 148.574 382.188 144.737 382.188 140.057C382.188 135.377 385.897 131.57 390.421 131.57C394.975 131.57 398.655 135.346 398.655 140.057ZM385.173 140.057C385.173 143.083 387.526 145.486 390.421 145.486C393.347 145.486 395.669 143.052 395.669 140.057C395.669 137.093 393.347 134.659 390.421 134.659C387.496 134.659 385.173 137.03 385.173 140.057Z" fill="#79D2C9" fill-opacity="0.7"/>
<path d="M405.35 344.541C405.35 349.252 401.701 353.059 397.147 353.059C392.593 353.059 388.913 349.221 388.913 344.541C388.913 339.83 392.623 336.023 397.147 336.023C401.671 336.023 405.35 339.83 405.35 344.541ZM391.899 344.541C391.899 347.536 394.251 349.97 397.147 349.97C400.012 349.97 402.364 347.536 402.364 344.541C402.364 341.577 400.012 339.143 397.147 339.143C394.251 339.143 391.899 341.515 391.899 344.541Z" fill="#79D2C9" fill-opacity="0.7"/>
<path d="M371.842 207.449C371.842 212.16 368.133 215.936 363.609 215.936C359.055 215.936 355.375 212.129 355.375 207.449C355.375 202.738 359.085 198.932 363.609 198.932C368.133 198.932 371.842 202.769 371.842 207.449ZM358.361 207.449C358.361 210.476 360.653 212.847 363.609 212.847C366.474 212.847 368.857 210.413 368.857 207.449C368.857 204.454 366.474 202.02 363.609 202.02C360.683 202.02 358.361 204.454 358.361 207.449Z" fill="#79D2C9" fill-opacity="0.7"/>
<path d="M405.35 273.468C405.35 278.179 401.701 281.985 397.147 281.985C392.593 281.985 388.913 278.148 388.913 273.468C388.913 268.788 392.623 264.981 397.147 264.981C401.671 264.981 405.35 268.757 405.35 273.468ZM391.899 273.468C391.899 276.494 394.251 278.897 397.147 278.897C400.012 278.897 402.364 276.463 402.364 273.468C402.364 270.504 400.012 268.07 397.147 268.07C394.251 268.07 391.899 270.41 391.899 273.468Z" fill="#79D2C9" fill-opacity="0.7"/>
<path d="M405.35 301.143C405.35 305.854 401.701 309.66 397.147 309.66C392.593 309.66 388.913 305.823 388.913 301.143C388.913 296.431 392.623 292.656 397.147 292.656C401.671 292.656 405.35 296.431 405.35 301.143ZM391.899 301.143C391.899 304.138 394.251 306.571 397.147 306.571C400.012 306.571 402.364 304.138 402.364 301.143C402.364 298.179 400.012 295.745 397.147 295.745C394.251 295.745 391.899 298.116 391.899 301.143Z" fill="#79D2C9" fill-opacity="0.7"/>
<path d="M338.305 301.143C338.305 305.854 334.595 309.66 330.071 309.66C325.547 309.66 321.807 305.823 321.807 301.143C321.807 296.431 325.517 292.625 330.071 292.625C334.625 292.625 338.305 296.431 338.305 301.143ZM324.793 301.143C324.793 304.138 327.145 306.571 330.041 306.571C332.906 306.571 335.289 304.138 335.289 301.143C335.289 298.147 332.906 295.714 330.041 295.714C327.145 295.714 324.793 298.147 324.793 301.143Z" fill="#79D2C9" fill-opacity="0.7"/>
<path d="M230.965 117.28C230.965 121.991 227.255 125.767 222.731 125.767C218.207 125.767 214.558 121.96 214.558 117.28C214.558 112.6 218.238 108.763 222.731 108.763C227.286 108.763 230.965 112.6 230.965 117.28ZM217.544 117.28C217.544 120.275 219.866 122.678 222.731 122.678C225.657 122.678 227.979 120.307 227.979 117.28C227.979 114.285 225.597 111.851 222.731 111.851C219.866 111.851 217.544 114.285 217.544 117.28Z" fill="#79D2C9" fill-opacity="0.7"/>
<path d="M237.721 73.1644C237.721 77.8756 234.011 81.7132 229.487 81.7132C224.933 81.7132 221.253 77.8756 221.253 73.1956C221.253 68.4844 224.963 64.7092 229.487 64.7092C234.011 64.678 237.721 68.4532 237.721 73.1644ZM224.209 73.1644C224.209 76.1596 226.562 78.5932 229.457 78.5932C232.382 78.5932 234.705 76.1908 234.705 73.1644C234.705 70.2004 232.322 67.7668 229.457 67.7668C226.562 67.7668 224.209 70.2004 224.209 73.1644Z" fill="#79D2C9" fill-opacity="0.7"/>
<path d="M237.721 154.003C237.721 158.683 234.011 162.521 229.487 162.521C224.933 162.521 221.253 158.683 221.253 154.003C221.253 149.292 224.963 145.517 229.487 145.517C234.011 145.486 237.721 149.292 237.721 154.003ZM224.209 154.003C224.209 156.967 226.562 159.401 229.457 159.432C232.322 159.432 234.705 156.998 234.705 154.003C234.705 150.977 232.382 148.606 229.457 148.606C226.562 148.574 224.209 151.008 224.209 154.003Z" fill="#79D2C9" fill-opacity="0.7"/>
<path d="M264.533 152.817C264.533 157.529 260.823 161.335 256.299 161.335C251.775 161.335 248.126 157.497 248.126 152.817C248.126 148.106 251.805 144.331 256.299 144.331C260.823 144.331 264.533 148.137 264.533 152.817ZM251.082 152.817C251.082 155.813 253.404 158.246 256.269 158.246C259.134 158.246 261.517 155.813 261.517 152.817C261.517 149.791 259.195 147.42 256.269 147.42C253.404 147.42 251.082 149.853 251.082 152.817Z" fill="#79D2C9" fill-opacity="0.7"/>
<path d="M264.533 280.457C264.533 285.137 260.823 288.944 256.299 288.944C251.775 288.944 248.126 285.137 248.126 280.457C248.126 275.746 251.805 271.94 256.299 271.94C260.823 271.908 264.533 275.746 264.533 280.457ZM251.082 280.457C251.082 283.421 253.404 285.855 256.269 285.855C259.134 285.855 261.517 283.421 261.517 280.457C261.517 277.4 259.195 275.028 256.269 275.028C253.404 274.997 251.082 277.431 251.082 280.457Z" fill="#79D2C9" fill-opacity="0.7"/>
<path d="M230.965 246.293C230.965 250.973 227.255 254.811 222.731 254.811C218.207 254.811 214.558 250.973 214.558 246.293C214.558 241.582 218.238 237.776 222.731 237.776C227.286 237.744 230.965 241.582 230.965 246.293ZM217.544 246.293C217.544 249.288 219.866 251.722 222.731 251.722C225.597 251.691 227.979 249.288 227.979 246.293C227.979 243.267 225.597 240.864 222.731 240.864C219.866 240.833 217.544 243.267 217.544 246.293Z" fill="#79D2C9" fill-opacity="0.7"/>
<path d="M298.101 246.292C298.101 250.972 294.391 254.81 289.867 254.81C285.313 254.81 281.634 250.972 281.634 246.292C281.634 241.581 285.343 237.806 289.867 237.806C294.391 237.775 298.101 241.581 298.101 246.292ZM284.589 246.292C284.589 249.287 286.942 251.721 289.837 251.721C292.702 251.721 295.085 249.287 295.085 246.292C295.085 243.235 292.763 240.895 289.837 240.895C286.942 240.863 284.589 243.297 284.589 246.292Z" fill="#79D2C9" fill-opacity="0.7"/>
<path d="M291.346 472.555C291.346 477.266 287.666 481.072 283.172 481.072C278.648 481.072 274.938 477.266 274.938 472.555C274.938 467.875 278.648 464.037 283.172 464.037C287.666 464.006 291.346 467.844 291.346 472.555ZM277.924 472.555C277.924 475.581 280.307 477.984 283.172 477.984C286.068 477.984 288.36 475.581 288.36 472.555C288.36 469.56 286.037 467.126 283.172 467.126C280.277 467.126 277.924 469.56 277.924 472.555Z" fill="#79D2C9" fill-opacity="0.7"/>
<path d="M291.346 223.143C291.346 227.823 287.636 231.629 283.112 231.629C278.618 231.629 274.938 227.823 274.938 223.143C274.938 218.431 278.618 214.625 283.112 214.625C287.636 214.625 291.346 218.431 291.346 223.143ZM277.924 223.143C277.924 226.107 280.247 228.54 283.112 228.54C286.068 228.54 288.36 226.169 288.36 223.143C288.36 220.116 285.977 217.714 283.112 217.714C280.216 217.714 277.924 220.147 277.924 223.143Z" fill="#79D2C9" fill-opacity="0.7"/>
<path d="M318.158 412.527C318.158 417.207 314.478 421.044 309.985 421.044C305.43 421.044 301.721 417.207 301.721 412.527C301.721 407.847 305.43 404.009 309.985 404.009C314.478 403.978 318.158 407.815 318.158 412.527ZM304.737 412.527C304.737 415.553 307.119 417.955 309.985 417.955C312.85 417.955 315.172 415.553 315.172 412.527C315.172 409.5 312.85 407.098 309.985 407.098C307.089 407.098 304.737 409.5 304.737 412.527Z" fill="#79D2C9" fill-opacity="0.7"/>
<path d="M318.158 458.454C318.158 463.134 314.478 467.003 309.985 467.003C305.43 467.003 301.721 463.165 301.721 458.454C301.721 453.743 305.43 449.937 309.985 449.937C314.478 449.937 318.158 453.774 318.158 458.454ZM304.737 458.454C304.737 461.481 307.119 463.883 309.985 463.883C312.85 463.883 315.172 461.481 315.172 458.454C315.172 455.428 312.85 453.025 309.985 453.025C307.089 453.057 304.737 455.459 304.737 458.454Z" fill="#79D2C9" fill-opacity="0.7"/>
<path d="M264.533 650.457C264.533 655.137 260.823 658.975 256.299 658.975C251.775 658.975 248.126 655.137 248.126 650.457C248.126 645.777 251.805 641.908 256.299 641.908C260.823 641.908 264.533 645.746 264.533 650.457ZM251.082 650.457C251.082 653.483 253.404 655.886 256.269 655.886C259.134 655.886 261.517 653.483 261.517 650.457C261.517 647.431 259.134 645.028 256.269 645.028C253.404 645.028 251.082 647.431 251.082 650.457Z" fill="#79D2C9" fill-opacity="0.7"/>
<path d="M237.721 419.482C237.721 424.194 234.011 428 229.487 428C224.933 428 221.253 424.194 221.253 419.482C221.253 414.802 224.963 410.965 229.487 410.965C234.011 410.965 237.721 414.802 237.721 419.482ZM224.209 419.482C224.209 422.509 226.562 424.911 229.457 424.911C232.322 424.911 234.705 422.509 234.705 419.482C234.705 416.487 232.322 414.054 229.457 414.054C226.562 414.054 224.209 416.518 224.209 419.482Z" fill="#79D2C9" fill-opacity="0.7"/>
<path d="M291.346 592.771C291.346 597.482 287.636 601.288 283.112 601.288C278.618 601.288 274.938 597.482 274.938 592.771C274.938 588.091 278.618 584.284 283.112 584.284C287.636 584.284 291.346 588.091 291.346 592.771ZM277.924 592.771C277.924 595.797 280.247 598.231 283.112 598.231C286.007 598.231 288.36 595.797 288.36 592.771C288.36 589.775 285.977 587.342 283.112 587.342C280.216 587.342 277.924 589.775 277.924 592.771Z" fill="#79D2C9" fill-opacity="0.7"/>
<path d="M291.346 700.628C291.346 705.339 287.636 709.146 283.112 709.146C278.618 709.146 274.938 705.339 274.938 700.628C274.938 695.948 278.618 692.079 283.112 692.079C287.636 692.11 291.346 695.948 291.346 700.628ZM277.924 700.628C277.924 703.654 280.247 706.088 283.112 706.088C286.007 706.088 288.36 703.654 288.36 700.628C288.36 697.633 285.977 695.199 283.112 695.199C280.216 695.199 277.924 697.633 277.924 700.628Z" fill="#79D2C9" fill-opacity="0.7"/>
<path d="M371.842 390C371.842 394.711 368.133 398.518 363.609 398.518C359.055 398.518 355.375 394.68 355.375 390C355.375 385.32 359.085 381.482 363.609 381.482C368.133 381.482 371.842 385.289 371.842 390ZM358.361 390C358.361 392.995 360.743 395.429 363.609 395.429C366.474 395.429 368.857 392.995 368.857 390C368.857 387.005 366.474 384.571 363.609 384.571C360.713 384.571 358.361 387.005 358.361 390Z" fill="#79D2C9" fill-opacity="0.7"/>
<path d="M338.305 496.83C338.305 501.51 334.595 505.348 330.071 505.348C325.547 505.348 321.807 501.51 321.807 496.83C321.807 492.15 325.517 488.312 330.071 488.312C334.625 488.312 338.305 492.119 338.305 496.83ZM324.793 496.83C324.793 499.856 327.176 502.259 330.041 502.259C332.906 502.259 335.289 499.856 335.289 496.83C335.289 493.804 332.906 491.401 330.041 491.401C327.176 491.401 324.793 493.804 324.793 496.83Z" fill="#79D2C9" fill-opacity="0.7"/>
<path d="M371.782 520.916C371.782 525.596 368.103 529.434 363.609 529.434C359.055 529.434 355.375 525.596 355.375 520.916C355.375 516.205 359.085 512.398 363.609 512.398C368.103 512.398 371.782 516.205 371.782 520.916ZM358.361 520.916C358.361 523.911 360.743 526.345 363.609 526.345C366.474 526.345 368.796 523.911 368.796 520.916C368.796 517.89 366.474 515.487 363.609 515.487C360.713 515.487 358.361 517.921 358.361 520.916Z" fill="#79D2C9" fill-opacity="0.7"/>
<path d="M344.97 628.243C344.97 632.923 341.29 636.792 336.766 636.792C332.212 636.792 328.533 632.955 328.533 628.243C328.533 623.532 332.212 619.726 336.766 619.726C341.321 619.695 344.97 623.501 344.97 628.243ZM331.519 628.243C331.519 631.239 333.901 633.672 336.766 633.672C339.632 633.672 341.954 631.239 341.954 628.243C341.954 625.217 339.632 622.815 336.766 622.815C333.931 622.815 331.519 625.217 331.519 628.243Z" fill="#79D2C9" fill-opacity="0.7"/>
<path d="M371.782 672.422C371.782 677.102 368.103 680.939 363.609 680.939C359.055 680.939 355.375 677.102 355.375 672.422C355.375 667.742 359.085 663.873 363.609 663.873C368.103 663.873 371.782 667.711 371.782 672.422ZM358.361 672.422C358.361 675.448 360.743 677.851 363.609 677.851C366.474 677.851 368.796 675.448 368.796 672.422C368.796 669.395 366.474 666.993 363.609 666.993C360.713 666.993 358.361 669.395 358.361 672.422Z" fill="#79D2C9" fill-opacity="0.7"/>
<path d="M318.158 771.482C318.158 776.162 314.478 780 309.985 780C305.43 780 301.721 776.162 301.721 771.482C301.721 766.802 305.43 762.934 309.985 762.934C314.478 762.934 318.158 766.771 318.158 771.482ZM304.737 771.482C304.737 774.54 307.059 776.911 309.985 776.911C312.85 776.911 315.172 774.509 315.172 771.482C315.172 768.487 312.85 766.054 309.985 766.054C307.089 766.054 304.737 768.487 304.737 771.482Z" fill="#79D2C9" fill-opacity="0.7"/>
<path d="M398.655 510.743C398.655 515.454 394.975 519.292 390.421 519.292C385.897 519.292 382.188 515.486 382.188 510.743C382.188 506.063 385.897 502.226 390.421 502.226C394.975 502.226 398.655 506.063 398.655 510.743ZM385.173 510.743C385.173 513.77 387.526 516.172 390.421 516.172C393.347 516.172 395.669 513.77 395.669 510.743C395.669 507.748 393.347 505.314 390.421 505.314C387.526 505.314 385.173 507.748 385.173 510.743Z" fill="#79D2C9" fill-opacity="0.7"/>
<path d="M398.655 740.752C398.655 745.463 394.975 749.27 390.421 749.27C385.897 749.27 382.188 745.463 382.188 740.752C382.188 736.072 385.897 732.234 390.421 732.234C394.975 732.234 398.655 736.072 398.655 740.752ZM385.173 740.752C385.173 743.778 387.526 746.181 390.421 746.181C393.347 746.181 395.669 743.778 395.669 740.752C395.669 737.757 393.347 735.323 390.421 735.323C387.526 735.323 385.173 737.757 385.173 740.752Z" fill="#79D2C9" fill-opacity="0.7"/>
<path d="M371.782 481.792C371.782 486.472 368.103 490.31 363.609 490.31C359.055 490.31 355.375 486.472 355.375 481.792C355.375 477.112 359.085 473.243 363.609 473.243C368.103 473.274 371.782 477.112 371.782 481.792ZM358.361 481.792C358.361 484.818 360.743 487.221 363.609 487.221C366.474 487.221 368.796 484.818 368.796 481.792C368.796 478.766 366.474 476.363 363.609 476.363C360.713 476.394 358.361 478.797 358.361 481.792Z" fill="#79D2C9" fill-opacity="0.7"/>
<path d="M344.97 386.911C344.97 391.623 341.29 395.429 336.766 395.429C332.212 395.429 328.533 391.591 328.533 386.911C328.533 382.231 332.212 378.394 336.766 378.394C341.321 378.363 344.97 382.2 344.97 386.911ZM331.519 386.911C331.519 389.907 333.901 392.34 336.766 392.34C339.632 392.34 341.954 389.907 341.954 386.911C341.954 383.916 339.632 381.483 336.766 381.483C333.931 381.483 331.519 383.916 331.519 386.911Z" fill="#79D2C9" fill-opacity="0.7"/>
<path d="M344.97 104.676C344.97 109.356 341.29 113.162 336.766 113.162C332.212 113.162 328.533 109.356 328.533 104.676C328.533 99.9646 332.212 96.1582 336.766 96.1582C341.321 96.1582 344.97 99.9646 344.97 104.676ZM331.519 104.676C331.519 107.702 333.811 110.073 336.766 110.073C339.601 110.073 341.954 107.64 341.954 104.676C341.954 101.649 339.601 99.247 336.766 99.247C333.871 99.247 331.519 101.649 331.519 104.676Z" fill="#79D2C9" fill-opacity="0.7"/>
<path d="M365.086 1.55957H362.101V201.614H365.086V1.55957Z" fill="#79D2C9" fill-opacity="0.7"/>
<path d="M338.305 1.55957H335.289V97.6868H338.305V1.55957Z" fill="#79D2C9" fill-opacity="0.7"/>
<path d="M390.421 271.908V274.996H335.288V163.612H308.476V1.55957H311.462V160.524H338.304V271.908H390.421Z" fill="#79D2C9" fill-opacity="0.7"/>
<path d="M390.421 342.981V346.07H365.086V374.056H335.288V323.575H308.476V209.944H281.604V1.55957H284.589V206.856H311.462V320.455H338.304V370.968H362.101V342.981H390.421Z" fill="#79D2C9" fill-opacity="0.7"/>
<path d="M257.777 1.55957V118.84H229.487V115.752H254.792V1.55957H257.777Z" fill="#79D2C9" fill-opacity="0.7"/>
<path d="M257.777 158.87H254.792V273.468H257.777V158.87Z" fill="#79D2C9" fill-opacity="0.7"/>
<path d="M311.462 349.971V405.538H308.476V353.06H281.604V229.445H284.589V349.971H311.462Z" fill="#79D2C9" fill-opacity="0.7"/>
<path d="M391.899 445.754V498.388H336.796V495.268H388.913V448.842H362.101V396.801H365.086V445.754H391.899Z" fill="#79D2C9" fill-opacity="0.7"/>
<path d="M365.087 459.044V474.831H362.101V462.164H335.289V393.898H338.305V459.044H365.087Z" fill="#79D2C9" fill-opacity="0.7"/>
<path d="M311.462 465.441V556.639H281.604V521.383H257.777V643.469H254.792V518.263H284.59V553.55H308.476V465.441H311.462Z" fill="#79D2C9" fill-opacity="0.7"/>
<path d="M311.462 632.518V662.813H284.65V693.639H281.664V659.755H308.476V635.638H281.604V599.789H284.589V632.518H311.462Z" fill="#79D2C9" fill-opacity="0.7"/>
<path d="M391.899 518.171V594.33H365.086V648.899H391.899V733.794H388.913V651.988H362.101V591.241H388.913V518.171H391.899Z" fill="#79D2C9" fill-opacity="0.7"/>
<path d="M365.087 527.903V576.7H338.305V621.784H335.289V573.611H362.101V527.903H365.087Z" fill="#79D2C9" fill-opacity="0.7"/>
<path d="M365.087 679.38V725.618H335.289V703.279H311.462V762.653H308.477V700.159H338.305V722.53H362.101V679.38H365.087Z" fill="#79D2C9" fill-opacity="0.7"/>
<path d="M230.995 1.55957H227.979V66.2372H230.995V1.55957Z" fill="#79D2C9" fill-opacity="0.7"/>
<path d="M284.65 405.943V465.441H281.664V409.032H254.791V344.947H227.979V287.976H201.167V227.261H227.979V160.805H230.965V230.349H204.153V284.856H230.965V341.858H257.777V405.943H284.65Z" fill="#79D2C9" fill-opacity="0.7"/>
<path d="M390.421 299.613H336.796V302.702H390.421V299.613Z" fill="#79D2C9" fill-opacity="0.7"/>
<path d="M283.172 244.732H229.487V247.821H283.172V244.732Z" fill="#79D2C9" fill-opacity="0.7"/>
<path d="M257.777 667.743V779.189H254.791V670.831H227.979V584.314H201.167V494.77H227.979V426.723H230.965V497.859H204.153V581.163H230.965V667.743H257.777Z" fill="#79D2C9" fill-opacity="0.7"/>
<path d="M230.995 516.579H227.979V560.322H230.995V516.579Z" fill="#79D2C9" fill-opacity="0.7"/>
<path d="M184.066 568.838C184.066 573.518 180.387 577.324 175.893 577.324C171.369 577.324 167.659 573.518 167.659 568.838C167.659 564.127 171.369 560.32 175.893 560.32C180.387 560.32 184.066 564.127 184.066 568.838ZM170.615 568.838C170.615 571.864 172.937 574.236 175.863 574.236C178.758 574.236 181.05 571.802 181.05 568.838C181.05 565.812 178.728 563.378 175.863 563.378C172.997 563.409 170.615 565.843 170.615 568.838Z" fill="#79D2C9" fill-opacity="0.7"/>
<path d="M237.691 568.838C237.691 573.518 234.012 577.324 229.518 577.324C224.964 577.324 221.284 573.518 221.284 568.838C221.284 564.127 224.994 560.32 229.518 560.32C234.012 560.32 237.691 564.127 237.691 568.838ZM224.24 568.838C224.24 571.864 226.562 574.236 229.488 574.236C232.353 574.236 234.675 571.802 234.675 568.838C234.675 565.812 232.353 563.378 229.488 563.378C226.622 563.409 224.24 565.843 224.24 568.838Z" fill="#79D2C9" fill-opacity="0.7"/>
<path d="M237.691 508.124C237.691 512.804 234.012 516.579 229.518 516.579C224.964 516.579 221.284 512.804 221.284 508.124C221.284 503.413 224.994 499.606 229.518 499.606C234.012 499.606 237.691 503.413 237.691 508.124ZM224.24 508.124C224.24 511.15 226.562 513.522 229.488 513.522C232.353 513.522 234.675 511.088 234.675 508.124C234.675 505.098 232.353 502.664 229.488 502.664C226.622 502.664 224.24 505.129 224.24 508.124Z" fill="#79D2C9" fill-opacity="0.7"/>
<path d="M448.147 270.348C448.147 275.059 444.528 278.834 439.974 278.834C435.42 278.834 431.74 275.028 431.74 270.348C431.74 265.668 435.42 261.83 439.974 261.83C444.498 261.83 448.147 265.636 448.147 270.348ZM434.696 270.348C434.696 273.405 437.048 275.745 439.974 275.745C442.869 275.745 445.161 273.312 445.161 270.348C445.161 267.352 442.869 264.919 439.974 264.919C437.109 264.919 434.696 267.321 434.696 270.348Z" fill="#79D2C9" fill-opacity="0.7"/>
<path d="M448.147 211.192C448.147 215.904 444.528 219.679 439.974 219.679C435.42 219.679 431.74 215.872 431.74 211.192C431.74 206.481 435.42 202.675 439.974 202.675C444.498 202.675 448.147 206.481 448.147 211.192ZM434.696 211.192C434.696 214.219 437.048 216.59 439.974 216.59C442.869 216.59 445.161 214.156 445.161 211.192C445.161 208.197 442.869 205.764 439.974 205.764C437.109 205.764 434.696 208.197 434.696 211.192Z" fill="#79D2C9" fill-opacity="0.7"/>
<path d="M659.026 211.192C659.026 215.904 655.377 219.679 650.853 219.679C646.298 219.679 642.589 215.872 642.589 211.192C642.589 206.481 646.298 202.675 650.853 202.675C655.377 202.675 659.026 206.481 659.026 211.192ZM645.575 211.192C645.575 214.219 647.897 216.59 650.853 216.59C653.748 216.59 656.01 214.156 656.01 211.192C656.01 208.197 653.748 205.764 650.853 205.764C647.987 205.764 645.575 208.197 645.575 211.192Z" fill="#79D2C9" fill-opacity="0.7"/>
<path d="M659.026 270.316C659.026 275.028 655.377 278.803 650.853 278.803C646.298 278.803 642.589 274.996 642.589 270.316C642.589 265.636 646.298 261.799 650.853 261.799C655.377 261.799 659.026 265.605 659.026 270.316ZM645.575 270.316C645.575 273.374 647.897 275.714 650.853 275.714C653.748 275.714 656.01 273.28 656.01 270.316C656.01 267.321 653.748 264.888 650.853 264.888C647.987 264.888 645.575 267.29 645.575 270.316Z" fill="#79D2C9" fill-opacity="0.7"/>
<path d="M184.066 508.124C184.066 512.804 180.387 516.579 175.893 516.579C171.369 516.579 167.659 512.804 167.659 508.124C167.659 503.413 171.369 499.606 175.893 499.606C180.387 499.606 184.066 503.413 184.066 508.124ZM170.615 508.124C170.615 511.15 172.937 513.522 175.863 513.522C178.758 513.522 181.05 511.088 181.05 508.124C181.05 505.098 178.728 502.664 175.863 502.664C172.997 502.664 170.615 505.129 170.615 508.124Z" fill="#79D2C9" fill-opacity="0.7"/>
<path d="M2162.44 0.780273H2159.42V131.539H2162.44V0.780273Z" fill="#79D2C9" fill-opacity="0.7"/>
<path d="M2169.16 139.277C2169.16 143.989 2165.45 147.795 2160.93 147.795C2156.37 147.795 2152.7 143.957 2152.7 139.277C2152.7 134.597 2156.4 130.76 2160.93 130.76C2165.45 130.76 2169.16 134.566 2169.16 139.277ZM2155.65 139.277C2155.65 142.304 2158 144.706 2160.9 144.706C2163.76 144.706 2166.15 142.273 2166.15 139.277C2166.15 136.282 2163.76 133.849 2160.9 133.849C2158 133.849 2155.65 136.282 2155.65 139.277Z" fill="#79D2C9" fill-opacity="0.7"/>
<path d="M2162.41 343.762C2162.41 348.473 2158.7 352.279 2154.17 352.279C2149.65 352.279 2146 348.442 2146 343.762C2146 339.05 2149.68 335.213 2154.17 335.213C2158.73 335.213 2162.41 339.05 2162.41 343.762ZM2148.96 343.762C2148.96 346.757 2151.28 349.19 2154.14 349.19C2157.01 349.19 2159.39 346.757 2159.39 343.762C2159.39 340.766 2157.01 338.333 2154.14 338.333C2151.28 338.333 2148.96 340.766 2148.96 343.762Z" fill="#79D2C9" fill-opacity="0.7"/>
<path d="M2195.98 206.639C2195.98 211.35 2192.27 215.156 2187.74 215.156C2183.22 215.156 2179.48 211.35 2179.48 206.639C2179.48 201.928 2183.19 198.152 2187.71 198.152C2192.24 198.152 2195.98 201.959 2195.98 206.639ZM2182.46 206.639C2182.46 209.634 2184.82 212.068 2187.71 212.068C2190.64 212.068 2192.96 209.665 2192.96 206.639C2192.96 203.675 2190.58 201.241 2187.71 201.241C2184.82 201.241 2182.46 203.675 2182.46 206.639Z" fill="#79D2C9" fill-opacity="0.7"/>
<path d="M2162.41 272.689C2162.41 277.4 2158.7 281.206 2154.17 281.206C2149.65 281.206 2146 277.369 2146 272.689C2146 268.009 2149.68 264.171 2154.17 264.171C2158.73 264.171 2162.41 267.977 2162.41 272.689ZM2148.96 272.689C2148.96 275.715 2151.28 278.117 2154.14 278.117C2157.01 278.117 2159.39 275.684 2159.39 272.689C2159.39 269.693 2157.01 267.26 2154.14 267.26C2151.28 267.26 2148.96 269.662 2148.96 272.689Z" fill="#79D2C9" fill-opacity="0.7"/>
<path d="M2162.41 300.364C2162.41 305.075 2158.7 308.881 2154.17 308.881C2149.65 308.881 2146 305.044 2146 300.364C2146 295.652 2149.68 291.846 2154.17 291.846C2158.73 291.815 2162.41 295.652 2162.41 300.364ZM2148.96 300.364C2148.96 303.359 2151.28 305.792 2154.14 305.792C2157.01 305.792 2159.39 303.359 2159.39 300.364C2159.39 297.368 2157.01 294.935 2154.14 294.935C2151.28 294.935 2148.96 297.368 2148.96 300.364Z" fill="#79D2C9" fill-opacity="0.7"/>
<path d="M2229.51 300.364C2229.51 305.075 2225.8 308.881 2221.28 308.881C2216.73 308.881 2213.05 305.044 2213.05 300.364C2213.05 295.652 2216.76 291.846 2221.28 291.846C2225.83 291.815 2229.51 295.652 2229.51 300.364ZM2216.03 300.364C2216.03 303.359 2218.38 305.792 2221.28 305.792C2224.14 305.792 2226.53 303.359 2226.53 300.364C2226.53 297.368 2224.14 294.935 2221.28 294.935C2218.38 294.935 2216.03 297.368 2216.03 300.364Z" fill="#79D2C9" fill-opacity="0.7"/>
<path d="M2336.76 116.501C2336.76 121.212 2333.08 124.987 2328.59 124.987C2324.03 124.987 2320.35 121.181 2320.35 116.501C2320.35 111.821 2324.06 107.983 2328.59 107.983C2333.11 107.983 2336.76 111.821 2336.76 116.501ZM2323.34 116.501C2323.34 119.559 2325.63 121.899 2328.59 121.899C2331.42 121.899 2333.78 119.465 2333.78 116.501C2333.78 113.506 2331.42 111.072 2328.59 111.072C2325.69 111.072 2323.34 113.506 2323.34 116.501Z" fill="#79D2C9" fill-opacity="0.7"/>
<path d="M2330.1 72.3848C2330.1 77.096 2326.39 80.9024 2321.86 80.9024C2317.34 80.9024 2313.63 77.0648 2313.63 72.3848C2313.63 67.6736 2317.34 63.8984 2321.86 63.8984C2326.39 63.8984 2330.1 67.6736 2330.1 72.3848ZM2316.59 72.3848C2316.59 75.4112 2318.88 77.8136 2321.83 77.8136C2324.73 77.8136 2327.08 75.38 2327.08 72.3848C2327.08 69.4208 2324.7 66.9872 2321.83 66.9872C2318.94 66.9872 2316.59 69.4208 2316.59 72.3848Z" fill="#79D2C9" fill-opacity="0.7"/>
<path d="M2330.1 153.224C2330.1 157.904 2326.39 161.71 2321.86 161.71C2317.34 161.71 2313.63 157.904 2313.63 153.224C2313.63 148.513 2317.34 144.737 2321.86 144.737C2326.39 144.706 2330.1 148.513 2330.1 153.224ZM2316.59 153.224C2316.59 156.25 2318.88 158.622 2321.83 158.622C2324.73 158.622 2327.08 156.188 2327.08 153.224C2327.08 150.26 2324.7 147.826 2321.83 147.826C2318.88 147.795 2316.59 150.166 2316.59 153.224Z" fill="#79D2C9" fill-opacity="0.7"/>
<path d="M2303.22 152.038C2303.22 156.749 2299.54 160.525 2295.05 160.525C2290.5 160.525 2286.82 156.718 2286.82 152.038C2286.82 147.327 2290.53 143.552 2295.05 143.552C2299.54 143.552 2303.22 147.358 2303.22 152.038ZM2289.77 152.038C2289.77 155.065 2292.06 157.436 2295.02 157.436C2297.86 157.436 2300.21 155.002 2300.21 152.038C2300.21 149.074 2297.86 146.641 2295.02 146.641C2292.06 146.641 2289.77 149.012 2289.77 152.038Z" fill="#79D2C9" fill-opacity="0.7"/>
<path d="M2303.22 279.678C2303.22 284.358 2299.54 288.164 2295.05 288.164C2290.5 288.164 2286.82 284.358 2286.82 279.678C2286.82 274.967 2290.53 271.16 2295.05 271.16C2299.54 271.129 2303.22 274.967 2303.22 279.678ZM2289.77 279.678C2289.77 282.642 2292.13 285.076 2295.02 285.076C2297.86 285.076 2300.21 282.642 2300.21 279.678C2300.21 276.652 2297.86 274.249 2295.02 274.249C2292.06 274.218 2289.77 276.62 2289.77 279.678Z" fill="#79D2C9" fill-opacity="0.7"/>
<path d="M2336.76 245.514C2336.76 250.194 2333.08 254.031 2328.59 254.031C2324.03 254.031 2320.35 250.194 2320.35 245.514C2320.35 240.803 2324.06 236.996 2328.59 236.996C2333.11 236.965 2336.76 240.803 2336.76 245.514ZM2323.34 245.514C2323.34 248.509 2325.69 250.943 2328.59 250.943C2331.42 250.943 2333.78 248.509 2333.78 245.514C2333.78 242.487 2331.42 240.085 2328.59 240.085C2325.69 240.054 2323.34 242.487 2323.34 245.514Z" fill="#79D2C9" fill-opacity="0.7"/>
<path d="M2269.72 245.514C2269.72 250.194 2266.01 254.031 2261.48 254.031C2256.93 254.031 2253.25 250.194 2253.25 245.514C2253.25 240.803 2256.96 236.996 2261.48 236.996C2266.04 236.965 2269.72 240.803 2269.72 245.514ZM2256.23 245.514C2256.23 248.509 2258.59 250.943 2261.48 250.943C2264.35 250.943 2266.73 248.509 2266.73 245.514C2266.73 242.487 2264.35 240.085 2261.48 240.085C2258.59 240.054 2256.23 242.487 2256.23 245.514Z" fill="#79D2C9" fill-opacity="0.7"/>
<path d="M2276.41 471.776C2276.41 476.487 2272.7 480.293 2268.18 480.293C2263.65 480.293 2260 476.487 2260 471.776C2260 467.096 2263.68 463.258 2268.18 463.258C2272.7 463.227 2276.41 467.064 2276.41 471.776ZM2262.96 471.776C2262.96 474.802 2265.28 477.204 2268.15 477.204C2271.01 477.204 2273.4 474.802 2273.4 471.776C2273.4 468.78 2271.01 466.347 2268.15 466.347C2265.28 466.347 2262.96 468.78 2262.96 471.776Z" fill="#79D2C9" fill-opacity="0.7"/>
<path d="M2276.41 222.363C2276.41 227.043 2272.73 230.85 2268.24 230.85C2263.68 230.85 2260 227.043 2260 222.363C2260 217.652 2263.71 213.846 2268.24 213.846C2272.73 213.846 2276.41 217.652 2276.41 222.363ZM2262.96 222.363C2262.96 225.327 2265.31 227.761 2268.21 227.761C2271.04 227.761 2273.4 225.327 2273.4 222.363C2273.4 219.337 2271.04 216.935 2268.21 216.935C2265.25 216.935 2262.96 219.337 2262.96 222.363Z" fill="#79D2C9" fill-opacity="0.7"/>
<path d="M2249.6 411.747C2249.6 416.427 2245.89 420.265 2241.37 420.265C2236.84 420.265 2233.19 416.427 2233.19 411.747C2233.19 407.067 2236.87 403.23 2241.37 403.23C2245.89 403.198 2249.6 407.036 2249.6 411.747ZM2236.15 411.747C2236.15 414.774 2238.47 417.176 2241.34 417.176C2244.2 417.176 2246.58 414.774 2246.58 411.747C2246.58 408.721 2244.2 406.318 2241.34 406.318C2238.47 406.318 2236.15 408.721 2236.15 411.747Z" fill="#79D2C9" fill-opacity="0.7"/>
<path d="M2249.6 457.675C2249.6 462.355 2245.89 466.224 2241.37 466.224C2236.84 466.224 2233.19 462.386 2233.19 457.675C2233.19 452.964 2236.87 449.157 2241.37 449.157C2245.89 449.157 2249.6 452.995 2249.6 457.675ZM2236.15 457.675C2236.15 460.701 2238.47 463.104 2241.34 463.104C2244.2 463.104 2246.58 460.701 2246.58 457.675C2246.58 454.648 2244.2 452.246 2241.34 452.246C2238.47 452.277 2236.15 454.68 2236.15 457.675Z" fill="#79D2C9" fill-opacity="0.7"/>
<path d="M2303.22 649.678C2303.22 654.358 2299.54 658.195 2295.05 658.195C2290.5 658.195 2286.82 654.358 2286.82 649.678C2286.82 644.998 2290.53 641.129 2295.05 641.129C2299.54 641.129 2303.22 644.967 2303.22 649.678ZM2289.77 649.678C2289.77 652.704 2292.16 655.107 2295.02 655.107C2297.89 655.107 2300.21 652.704 2300.21 649.678C2300.21 646.651 2297.89 644.249 2295.02 644.249C2292.16 644.249 2289.77 646.651 2289.77 649.678Z" fill="#79D2C9" fill-opacity="0.7"/>
<path d="M2330.1 418.703C2330.1 423.414 2326.39 427.221 2321.86 427.221C2317.34 427.221 2313.63 423.414 2313.63 418.703C2313.63 414.023 2317.34 410.186 2321.86 410.186C2326.39 410.186 2330.1 414.023 2330.1 418.703ZM2316.59 418.703C2316.59 421.73 2318.94 424.132 2321.83 424.132C2324.73 424.132 2327.08 421.73 2327.08 418.703C2327.08 415.708 2324.7 413.274 2321.83 413.274C2318.94 413.274 2316.59 415.739 2316.59 418.703Z" fill="#79D2C9" fill-opacity="0.7"/>
<path d="M2276.41 591.991C2276.41 596.703 2272.73 600.509 2268.24 600.509C2263.68 600.509 2260 596.703 2260 591.991C2260 587.311 2263.71 583.505 2268.24 583.505C2272.73 583.505 2276.41 587.311 2276.41 591.991ZM2262.96 591.991C2262.96 595.018 2265.34 597.451 2268.21 597.451C2271.07 597.451 2273.4 595.018 2273.4 591.991C2273.4 588.996 2271.07 586.563 2268.21 586.563C2265.34 586.563 2262.96 588.996 2262.96 591.991Z" fill="#79D2C9" fill-opacity="0.7"/>
<path d="M2276.41 699.849C2276.41 704.56 2272.73 708.366 2268.24 708.366C2263.68 708.366 2260 704.56 2260 699.849C2260 695.169 2263.71 691.3 2268.24 691.3C2272.73 691.331 2276.41 695.169 2276.41 699.849ZM2262.96 699.849C2262.96 702.875 2265.34 705.309 2268.21 705.309C2271.07 705.309 2273.4 702.875 2273.4 699.849C2273.4 696.853 2271.07 694.42 2268.21 694.42C2265.34 694.42 2262.96 696.853 2262.96 699.849Z" fill="#79D2C9" fill-opacity="0.7"/>
<path d="M2195.98 389.221C2195.98 393.932 2192.27 397.738 2187.74 397.738C2183.22 397.738 2179.48 393.932 2179.48 389.221C2179.48 384.51 2183.19 380.703 2187.71 380.703C2192.24 380.703 2195.98 384.51 2195.98 389.221ZM2182.46 389.221C2182.46 392.216 2184.82 394.65 2187.71 394.65C2190.58 394.65 2192.96 392.216 2192.96 389.221C2192.96 386.226 2190.58 383.792 2187.71 383.792C2184.82 383.792 2182.46 386.226 2182.46 389.221Z" fill="#79D2C9" fill-opacity="0.7"/>
<path d="M2229.51 496.051C2229.51 500.731 2225.8 504.569 2221.28 504.569C2216.73 504.569 2213.05 500.731 2213.05 496.051C2213.05 491.371 2216.76 487.533 2221.28 487.533C2225.83 487.502 2229.51 491.34 2229.51 496.051ZM2216.03 496.051C2216.03 499.077 2218.38 501.48 2221.28 501.48C2224.14 501.48 2226.53 499.077 2226.53 496.051C2226.53 493.025 2224.14 490.622 2221.28 490.622C2218.38 490.622 2216.03 493.025 2216.03 496.051Z" fill="#79D2C9" fill-opacity="0.7"/>
<path d="M2195.98 520.137C2195.98 524.817 2192.27 528.654 2187.74 528.654C2183.22 528.654 2179.57 524.817 2179.57 520.137C2179.57 515.426 2183.25 511.619 2187.74 511.619C2192.27 511.619 2195.98 515.426 2195.98 520.137ZM2182.52 520.137C2182.52 523.132 2184.85 525.566 2187.71 525.566C2190.58 525.566 2192.96 523.132 2192.96 520.137C2192.96 517.11 2190.58 514.708 2187.71 514.708C2184.85 514.708 2182.52 517.142 2182.52 520.137Z" fill="#79D2C9" fill-opacity="0.7"/>
<path d="M2222.79 627.464C2222.79 632.144 2219.08 636.013 2214.55 636.013C2210.06 636.013 2206.38 632.175 2206.38 627.464C2206.38 622.753 2210.06 618.946 2214.55 618.946C2219.08 618.915 2222.79 622.722 2222.79 627.464ZM2209.34 627.464C2209.34 630.459 2211.66 632.893 2214.52 632.893C2217.42 632.893 2219.77 630.459 2219.77 627.464C2219.77 624.438 2217.39 622.035 2214.52 622.035C2211.66 622.035 2209.34 624.438 2209.34 627.464Z" fill="#79D2C9" fill-opacity="0.7"/>
<path d="M2195.98 671.643C2195.98 676.323 2192.27 680.16 2187.74 680.16C2183.22 680.16 2179.57 676.323 2179.57 671.643C2179.57 666.963 2183.25 663.094 2187.74 663.094C2192.27 663.094 2195.98 666.931 2195.98 671.643ZM2182.52 671.643C2182.52 674.669 2184.85 677.071 2187.71 677.071C2190.58 677.071 2192.96 674.669 2192.96 671.643C2192.96 668.616 2190.58 666.214 2187.71 666.214C2184.85 666.214 2182.52 668.616 2182.52 671.643Z" fill="#79D2C9" fill-opacity="0.7"/>
<path d="M2249.6 770.703C2249.6 775.383 2245.89 779.221 2241.37 779.221C2236.84 779.221 2233.19 775.383 2233.19 770.703C2233.19 766.023 2236.87 762.154 2241.37 762.154C2245.89 762.154 2249.6 765.992 2249.6 770.703ZM2236.15 770.703C2236.15 773.73 2238.47 776.132 2241.34 776.132C2244.26 776.132 2246.58 773.761 2246.58 770.703C2246.58 767.708 2244.2 765.274 2241.34 765.274C2238.47 765.274 2236.15 767.708 2236.15 770.703Z" fill="#79D2C9" fill-opacity="0.7"/>
<path d="M2169.16 509.964C2169.16 514.675 2165.45 518.513 2160.93 518.513C2156.37 518.513 2152.7 514.706 2152.7 509.964C2152.7 505.284 2156.4 501.446 2160.93 501.446C2165.45 501.446 2169.16 505.284 2169.16 509.964ZM2155.65 509.964C2155.65 512.99 2158 515.393 2160.9 515.393C2163.76 515.393 2166.15 512.99 2166.15 509.964C2166.15 506.969 2163.76 504.535 2160.9 504.535C2158 504.535 2155.65 506.969 2155.65 509.964Z" fill="#79D2C9" fill-opacity="0.7"/>
<path d="M2169.16 739.973C2169.16 744.684 2165.45 748.49 2160.93 748.49C2156.37 748.49 2152.7 744.684 2152.7 739.973C2152.7 735.293 2156.4 731.455 2160.93 731.455C2165.45 731.455 2169.16 735.293 2169.16 739.973ZM2155.65 739.973C2155.65 742.999 2158.03 745.401 2160.9 745.401C2163.76 745.401 2166.15 742.999 2166.15 739.973C2166.15 736.978 2163.76 734.544 2160.9 734.544C2158.03 734.544 2155.65 736.978 2155.65 739.973Z" fill="#79D2C9" fill-opacity="0.7"/>
<path d="M2195.98 481.013C2195.98 485.693 2192.27 489.53 2187.74 489.53C2183.22 489.53 2179.57 485.693 2179.57 481.013C2179.57 476.333 2183.25 472.464 2187.74 472.464C2192.27 472.495 2195.98 476.333 2195.98 481.013ZM2182.52 481.013C2182.52 484.039 2184.85 486.441 2187.71 486.441C2190.58 486.441 2192.96 484.039 2192.96 481.013C2192.96 477.986 2190.58 475.584 2187.71 475.584C2184.85 475.615 2182.52 478.017 2182.52 481.013Z" fill="#79D2C9" fill-opacity="0.7"/>
<path d="M2222.79 386.132C2222.79 390.843 2219.08 394.65 2214.55 394.65C2210.06 394.65 2206.38 390.812 2206.38 386.132C2206.38 381.452 2210.06 377.614 2214.55 377.614C2219.08 377.583 2222.79 381.421 2222.79 386.132ZM2209.34 386.132C2209.34 389.127 2211.66 391.561 2214.52 391.561C2217.42 391.561 2219.77 389.127 2219.77 386.132C2219.77 383.137 2217.39 380.703 2214.52 380.703C2211.66 380.703 2209.34 383.137 2209.34 386.132Z" fill="#79D2C9" fill-opacity="0.7"/>
<path d="M2222.79 103.897C2222.79 108.577 2219.08 112.383 2214.55 112.383C2210.06 112.383 2206.38 108.577 2206.38 103.897C2206.38 99.1853 2210.06 95.3789 2214.55 95.3789C2219.08 95.3789 2222.79 99.1853 2222.79 103.897ZM2209.34 103.897C2209.34 106.861 2211.66 109.294 2214.52 109.294C2217.42 109.294 2219.77 106.861 2219.77 103.897C2219.77 100.839 2217.45 98.4677 2214.52 98.4677C2211.66 98.4677 2209.34 100.87 2209.34 103.897Z" fill="#79D2C9" fill-opacity="0.7"/>
<path d="M2189.22 0.780273H2186.23V200.835H2189.22V0.780273Z" fill="#79D2C9" fill-opacity="0.7"/>
<path d="M2216.03 0.780273H2213.05V96.9075H2216.03V0.780273Z" fill="#79D2C9" fill-opacity="0.7"/>
<path d="M2242.84 0.780273V162.833H2216.03V274.217H2160.9V271.128H2213.05V159.744H2239.86V0.780273H2242.84Z" fill="#79D2C9" fill-opacity="0.7"/>
<path d="M2269.72 0.780273V209.165H2242.84V322.795H2216.03V373.277H2186.23V345.291H2160.9V342.202H2189.22V370.188H2213.05V319.675H2239.86V206.076H2266.73V0.780273H2269.72Z" fill="#79D2C9" fill-opacity="0.7"/>
<path d="M2321.83 114.972V118.061H2293.54V0.780273H2296.53V114.972H2321.83Z" fill="#79D2C9" fill-opacity="0.7"/>
<path d="M2296.53 158.091H2293.54V272.688H2296.53V158.091Z" fill="#79D2C9" fill-opacity="0.7"/>
<path d="M2269.72 228.666V352.28H2242.84V404.759H2239.86V349.192H2266.73V228.666H2269.72Z" fill="#79D2C9" fill-opacity="0.7"/>
<path d="M2214.52 494.489V497.609H2159.42V444.974H2186.23V396.021H2189.22V448.063H2162.41V494.489H2214.52Z" fill="#79D2C9" fill-opacity="0.7"/>
<path d="M2216.03 393.119V461.385H2189.22V474.052H2186.23V458.265H2213.05V393.119H2216.03Z" fill="#79D2C9" fill-opacity="0.7"/>
<path d="M2296.53 517.484V642.689H2293.54V520.604H2269.72V555.86H2239.86V464.662H2242.84V552.771H2266.73V517.484H2296.53Z" fill="#79D2C9" fill-opacity="0.7"/>
<path d="M2269.72 599.01V634.859H2242.84V658.976H2269.66V692.859H2266.67V662.034H2239.86V631.739H2266.73V599.01H2269.72Z" fill="#79D2C9" fill-opacity="0.7"/>
<path d="M2189.22 590.462V651.208H2162.41V733.015H2159.42V648.12H2186.23V593.551H2159.42V517.392H2162.41V590.462H2189.22Z" fill="#79D2C9" fill-opacity="0.7"/>
<path d="M2216.03 572.832V621.005H2213.05V575.921H2186.23V527.124H2189.22V572.832H2216.03Z" fill="#79D2C9" fill-opacity="0.7"/>
<path d="M2242.84 699.38V761.873H2239.86V702.5H2216.03V724.839H2186.23V678.601H2189.22V721.75H2213.05V699.38H2242.84Z" fill="#79D2C9" fill-opacity="0.7"/>
<path d="M2323.34 0.780273H2320.35V65.4579H2323.34V0.780273Z" fill="#79D2C9" fill-opacity="0.7"/>
<path d="M2350.15 226.481V287.197H2323.34V344.168H2296.53V408.253H2269.66V464.662H2266.67V405.164H2293.54V341.079H2320.35V284.077H2347.17V229.57H2320.35V160.025H2323.34V226.481H2350.15Z" fill="#79D2C9" fill-opacity="0.7"/>
<path d="M2214.52 298.834H2160.9V301.923H2214.52V298.834Z" fill="#79D2C9" fill-opacity="0.7"/>
<path d="M2321.86 243.953H2268.18V247.042H2321.86V243.953Z" fill="#79D2C9" fill-opacity="0.7"/>
<path d="M2350.15 494.084V583.722H2323.34V670.395H2296.53V778.878H2293.54V667.307H2320.36V580.602H2347.17V497.204H2320.36V425.943H2323.34V494.084H2350.15Z" fill="#79D2C9" fill-opacity="0.7"/>
<path d="M2323.34 515.8H2320.35V559.542H2323.34V515.8Z" fill="#79D2C9" fill-opacity="0.7"/>
</svg>
